<mxfile host="Electron" modified="2023-12-12T09:48:20.078Z" agent="Mozilla/5.0 (X11; Linux x86_64) AppleWebKit/537.36 (KHTML, like Gecko) draw.io/22.1.2 Chrome/114.0.5735.289 Electron/25.9.4 Safari/537.36" etag="14E8oSdmFAR5PvgDm1Ip" version="22.1.2" type="device">
  <diagram name="Страница-1" id="Страница-1">
    <mxGraphModel dx="676" dy="395" grid="1" gridSize="10" guides="1" tooltips="1" connect="1" arrows="1" fold="1" page="1" pageScale="1" pageWidth="827" pageHeight="1169" math="0" shadow="0">
      <root>
        <mxCell id="0" />
        <mxCell id="1" parent="0" />
        <mxCell id="rFzxfalwFgXO4eg9ru58-133" value="" style="group;fontFamily=Arial;fontStyle=2" parent="1" vertex="1" connectable="0">
          <mxGeometry x="80" y="20" width="730" height="1130" as="geometry" />
        </mxCell>
        <mxCell id="2" style="vsdxID=5;fillColor=#FFFFFF;gradientColor=none;shape=stencil(nY9LDoAgDERP0z3SI/i5BwkoRAUC+Lu9kGo0Lt3NtK/tFLCOWngFnMUU3Kg2I5MGbIBzY7UKJmUF2ALWvQtqCG6xkrwXhSxqdmvZsNNcxViZ4ewgT64jdDL2hf4E7wsXmsWThd549765c4l+xvYE);strokeColor=#000000;strokeWidth=4;spacingTop=-1;spacingBottom=-1;spacingLeft=-1;spacingRight=-1;labelBackgroundColor=#ffffff;rounded=0;html=1;whiteSpace=wrap;fontFamily=Arial;fontStyle=2" parent="rFzxfalwFgXO4eg9ru58-133" vertex="1">
          <mxGeometry y="913.4494773519164" width="730" height="216.55052264808361" as="geometry" />
        </mxCell>
        <mxCell id="131" style="vsdxID=30;edgeStyle=none;startArrow=none;endArrow=none;startSize=5;endSize=5;strokeWidth=4;strokeColor=#000000;spacingTop=-1;spacingBottom=-1;spacingLeft=-1;spacingRight=-1;verticalAlign=middle;html=1;labelBackgroundColor=#ffffff;rounded=0;fontFamily=Arial;fontStyle=2" parent="rFzxfalwFgXO4eg9ru58-133" edge="1">
          <mxGeometry as="geometry">
            <Array as="points" />
            <mxPoint x="27.62162162162162" y="913.4494773519164" as="sourcePoint" />
            <mxPoint x="27.62162162162162" y="1011.8815331010452" as="targetPoint" />
          </mxGeometry>
        </mxCell>
        <mxCell id="130" style="vsdxID=29;edgeStyle=none;startArrow=none;endArrow=none;startSize=5;endSize=5;strokeColor=#000000;spacingTop=-1;spacingBottom=-1;spacingLeft=-1;spacingRight=-1;verticalAlign=middle;html=1;labelBackgroundColor=#ffffff;rounded=0;fontFamily=Arial;fontStyle=2" parent="rFzxfalwFgXO4eg9ru58-133" edge="1">
          <mxGeometry as="geometry">
            <mxPoint as="offset" />
            <Array as="points" />
            <mxPoint y="1110.313588850174" as="sourcePoint" />
            <mxPoint x="256.48648648648646" y="1110.313588850174" as="targetPoint" />
          </mxGeometry>
        </mxCell>
        <mxCell id="129" style="vsdxID=28;edgeStyle=none;startArrow=none;endArrow=none;startSize=5;endSize=5;strokeColor=#000000;spacingTop=-1;spacingBottom=-1;spacingLeft=-1;spacingRight=-1;verticalAlign=middle;html=1;labelBackgroundColor=#ffffff;rounded=0;fontFamily=Arial;fontStyle=2" parent="rFzxfalwFgXO4eg9ru58-133" edge="1">
          <mxGeometry as="geometry">
            <mxPoint as="offset" />
            <Array as="points" />
            <mxPoint y="1090.6271777003483" as="sourcePoint" />
            <mxPoint x="256.48648648648646" y="1090.6271777003483" as="targetPoint" />
          </mxGeometry>
        </mxCell>
        <mxCell id="128" style="vsdxID=27;edgeStyle=none;startArrow=none;endArrow=none;startSize=5;endSize=5;strokeColor=#000000;spacingTop=-1;spacingBottom=-1;spacingLeft=-1;spacingRight=-1;verticalAlign=middle;html=1;labelBackgroundColor=#ffffff;rounded=0;fontFamily=Arial;fontStyle=2" parent="rFzxfalwFgXO4eg9ru58-133" edge="1">
          <mxGeometry as="geometry">
            <mxPoint as="offset" />
            <Array as="points" />
            <mxPoint y="1070.9407665505225" as="sourcePoint" />
            <mxPoint x="256.48648648648646" y="1070.9407665505225" as="targetPoint" />
          </mxGeometry>
        </mxCell>
        <mxCell id="127" style="vsdxID=26;edgeStyle=none;startArrow=none;endArrow=none;startSize=5;endSize=5;strokeColor=#000000;spacingTop=-1;spacingBottom=-1;spacingLeft=-1;spacingRight=-1;verticalAlign=middle;html=1;labelBackgroundColor=#ffffff;rounded=0;fontFamily=Arial;fontStyle=2" parent="rFzxfalwFgXO4eg9ru58-133" edge="1">
          <mxGeometry as="geometry">
            <mxPoint as="offset" />
            <Array as="points" />
            <mxPoint y="1051.2543554006968" as="sourcePoint" />
            <mxPoint x="256.48648648648646" y="1051.2543554006968" as="targetPoint" />
          </mxGeometry>
        </mxCell>
        <mxCell id="126" style="vsdxID=25;edgeStyle=none;startArrow=none;endArrow=none;startSize=5;endSize=5;strokeColor=#000000;spacingTop=-1;spacingBottom=-1;spacingLeft=-1;spacingRight=-1;verticalAlign=middle;html=1;labelBackgroundColor=#ffffff;rounded=0;fontFamily=Arial;fontStyle=2" parent="rFzxfalwFgXO4eg9ru58-133" edge="1">
          <mxGeometry as="geometry">
            <mxPoint as="offset" />
            <Array as="points" />
            <mxPoint y="1031.567944250871" as="sourcePoint" />
            <mxPoint x="256.48648648648646" y="1031.567944250871" as="targetPoint" />
          </mxGeometry>
        </mxCell>
        <mxCell id="125" style="vsdxID=24;edgeStyle=none;startArrow=none;endArrow=none;startSize=5;endSize=5;strokeWidth=4;strokeColor=#000000;spacingTop=-1;spacingBottom=-1;spacingLeft=-1;spacingRight=-1;verticalAlign=middle;html=1;labelBackgroundColor=#ffffff;rounded=0;fontFamily=Arial;fontStyle=2" parent="rFzxfalwFgXO4eg9ru58-133" edge="1">
          <mxGeometry as="geometry">
            <mxPoint as="offset" />
            <Array as="points" />
            <mxPoint y="1011.8815331010452" as="sourcePoint" />
            <mxPoint x="256.48648648648646" y="1011.8815331010452" as="targetPoint" />
          </mxGeometry>
        </mxCell>
        <mxCell id="124" style="vsdxID=23;edgeStyle=none;startArrow=none;endArrow=none;startSize=5;endSize=5;strokeWidth=4;strokeColor=#000000;spacingTop=-1;spacingBottom=-1;spacingLeft=-1;spacingRight=-1;verticalAlign=middle;html=1;labelBackgroundColor=#ffffff;rounded=0;fontFamily=Arial;fontStyle=2" parent="rFzxfalwFgXO4eg9ru58-133" edge="1">
          <mxGeometry as="geometry">
            <mxPoint as="offset" />
            <Array as="points" />
            <mxPoint y="992.1951219512194" as="sourcePoint" />
            <mxPoint x="256.48648648648646" y="992.1951219512194" as="targetPoint" />
          </mxGeometry>
        </mxCell>
        <mxCell id="123" style="vsdxID=22;edgeStyle=none;startArrow=none;endArrow=none;startSize=5;endSize=5;strokeColor=#000000;spacingTop=-1;spacingBottom=-1;spacingLeft=-1;spacingRight=-1;verticalAlign=middle;html=1;labelBackgroundColor=#ffffff;rounded=0;fontFamily=Arial;fontStyle=2" parent="rFzxfalwFgXO4eg9ru58-133" edge="1">
          <mxGeometry as="geometry">
            <mxPoint as="offset" />
            <Array as="points" />
            <mxPoint y="972.5087108013937" as="sourcePoint" />
            <mxPoint x="256.48648648648646" y="972.5087108013937" as="targetPoint" />
          </mxGeometry>
        </mxCell>
        <mxCell id="122" style="vsdxID=21;edgeStyle=none;startArrow=none;endArrow=none;startSize=5;endSize=5;strokeColor=#000000;spacingTop=-1;spacingBottom=-1;spacingLeft=-1;spacingRight=-1;verticalAlign=middle;html=1;labelBackgroundColor=#ffffff;rounded=0;fontFamily=Arial;fontStyle=2" parent="rFzxfalwFgXO4eg9ru58-133" edge="1">
          <mxGeometry as="geometry">
            <mxPoint as="offset" />
            <Array as="points" />
            <mxPoint y="952.8222996515678" as="sourcePoint" />
            <mxPoint x="256.48648648648646" y="952.8222996515678" as="targetPoint" />
          </mxGeometry>
        </mxCell>
        <mxCell id="121" style="vsdxID=20;edgeStyle=none;startArrow=none;endArrow=none;startSize=5;endSize=5;strokeColor=#000000;spacingTop=-1;spacingBottom=-1;spacingLeft=-1;spacingRight=-1;verticalAlign=middle;html=1;labelBackgroundColor=#ffffff;rounded=0;fontSize=16;fontFamily=Arial;fontStyle=2" parent="rFzxfalwFgXO4eg9ru58-133" edge="1">
          <mxGeometry as="geometry">
            <mxPoint as="offset" />
            <Array as="points" />
            <mxPoint y="933.1358885017421" as="sourcePoint" />
            <mxPoint x="256.48648648648646" y="933.1358885017421" as="targetPoint" />
          </mxGeometry>
        </mxCell>
        <mxCell id="120" style="vsdxID=19;edgeStyle=none;startArrow=none;endArrow=none;startSize=5;endSize=5;strokeWidth=4;strokeColor=#000000;spacingTop=-1;spacingBottom=-1;spacingLeft=-1;spacingRight=-1;verticalAlign=middle;html=1;labelBackgroundColor=#ffffff;rounded=0;fontFamily=Arial;fontStyle=2" parent="rFzxfalwFgXO4eg9ru58-133" edge="1">
          <mxGeometry as="geometry">
            <Array as="points" />
            <mxPoint x="67.08108108108108" y="913.4494773519164" as="sourcePoint" />
            <mxPoint x="67.08108108108108" y="1130" as="targetPoint" />
          </mxGeometry>
        </mxCell>
        <mxCell id="119" style="vsdxID=18;edgeStyle=none;startArrow=none;endArrow=none;startSize=5;endSize=5;strokeWidth=4;strokeColor=#000000;spacingTop=-1;spacingBottom=-1;spacingLeft=-1;spacingRight=-1;verticalAlign=middle;html=1;labelBackgroundColor=#ffffff;rounded=0;fontFamily=Arial;fontStyle=2" parent="rFzxfalwFgXO4eg9ru58-133" edge="1">
          <mxGeometry as="geometry">
            <Array as="points" />
            <mxPoint x="157.83783783783784" y="913.4494773519164" as="sourcePoint" />
            <mxPoint x="157.83783783783784" y="1130" as="targetPoint" />
          </mxGeometry>
        </mxCell>
        <mxCell id="118" style="vsdxID=17;edgeStyle=none;startArrow=none;endArrow=none;startSize=5;endSize=5;strokeWidth=4;strokeColor=#000000;spacingTop=-1;spacingBottom=-1;spacingLeft=-1;spacingRight=-1;verticalAlign=middle;html=1;labelBackgroundColor=#ffffff;rounded=0;fontFamily=Arial;fontStyle=2" parent="rFzxfalwFgXO4eg9ru58-133" edge="1">
          <mxGeometry as="geometry">
            <Array as="points" />
            <mxPoint x="217.027027027027" y="913.4494773519164" as="sourcePoint" />
            <mxPoint x="217.027027027027" y="1130" as="targetPoint" />
          </mxGeometry>
        </mxCell>
        <mxCell id="117" style="vsdxID=16;edgeStyle=none;startArrow=none;endArrow=none;startSize=5;endSize=5;strokeWidth=4;strokeColor=#000000;spacingTop=-1;spacingBottom=-1;spacingLeft=-1;spacingRight=-1;verticalAlign=middle;html=1;labelBackgroundColor=#ffffff;rounded=0;fontFamily=Arial;fontStyle=2" parent="rFzxfalwFgXO4eg9ru58-133" edge="1">
          <mxGeometry as="geometry">
            <Array as="points" />
            <mxPoint x="660.9459459459459" y="972.5087108013937" as="sourcePoint" />
            <mxPoint x="660.9459459459459" y="1051.2543554006968" as="targetPoint" />
          </mxGeometry>
        </mxCell>
        <mxCell id="116" style="vsdxID=15;edgeStyle=none;startArrow=none;endArrow=none;startSize=5;endSize=5;strokeWidth=4;strokeColor=#000000;spacingTop=-1;spacingBottom=-1;spacingLeft=-1;spacingRight=-1;verticalAlign=middle;html=1;labelBackgroundColor=#ffffff;rounded=0;fontFamily=Arial;fontStyle=2" parent="rFzxfalwFgXO4eg9ru58-133" edge="1">
          <mxGeometry as="geometry">
            <Array as="points" />
            <mxPoint x="611.6216216216216" y="1051.2543554006968" as="sourcePoint" />
            <mxPoint x="611.6216216216216" y="1070.9407665505225" as="targetPoint" />
          </mxGeometry>
        </mxCell>
        <mxCell id="115" style="vsdxID=14;edgeStyle=none;startArrow=none;endArrow=none;startSize=5;endSize=5;strokeColor=#000000;spacingTop=-1;spacingBottom=-1;spacingLeft=-1;spacingRight=-1;verticalAlign=middle;html=1;labelBackgroundColor=#ffffff;rounded=0;fontFamily=Arial;fontStyle=2" parent="rFzxfalwFgXO4eg9ru58-133" edge="1">
          <mxGeometry as="geometry">
            <Array as="points" />
            <mxPoint x="572.1621621621622" y="992.1951219512194" as="sourcePoint" />
            <mxPoint x="572.1621621621622" y="1051.2543554006968" as="targetPoint" />
          </mxGeometry>
        </mxCell>
        <mxCell id="114" style="vsdxID=13;edgeStyle=none;startArrow=none;endArrow=none;startSize=5;endSize=5;strokeColor=#000000;spacingTop=-1;spacingBottom=-1;spacingLeft=-1;spacingRight=-1;verticalAlign=middle;html=1;labelBackgroundColor=#ffffff;rounded=0;fontFamily=Arial;fontStyle=2" parent="rFzxfalwFgXO4eg9ru58-133" edge="1">
          <mxGeometry as="geometry">
            <Array as="points" />
            <mxPoint x="552.4324324324325" y="992.1951219512194" as="sourcePoint" />
            <mxPoint x="552.4324324324325" y="1051.2543554006968" as="targetPoint" />
          </mxGeometry>
        </mxCell>
        <mxCell id="113" style="vsdxID=12;edgeStyle=none;startArrow=none;endArrow=none;startSize=5;endSize=5;strokeWidth=4;strokeColor=#000000;spacingTop=-1;spacingBottom=-1;spacingLeft=-1;spacingRight=-1;verticalAlign=middle;html=1;labelBackgroundColor=#ffffff;rounded=0;fontFamily=Arial;fontStyle=2" parent="rFzxfalwFgXO4eg9ru58-133" edge="1">
          <mxGeometry as="geometry">
            <Array as="points" />
            <mxPoint x="591.8918918918919" y="972.5087108013937" as="sourcePoint" />
            <mxPoint x="591.8918918918919" y="1051.2543554006968" as="targetPoint" />
          </mxGeometry>
        </mxCell>
        <mxCell id="112" style="vsdxID=11;edgeStyle=none;startArrow=none;endArrow=none;startSize=5;endSize=5;strokeWidth=4;strokeColor=#000000;spacingTop=-1;spacingBottom=-1;spacingLeft=-1;spacingRight=-1;verticalAlign=middle;html=1;labelBackgroundColor=#ffffff;rounded=0;fontFamily=Arial;fontStyle=2" parent="rFzxfalwFgXO4eg9ru58-133" edge="1">
          <mxGeometry as="geometry">
            <mxPoint as="offset" />
            <Array as="points" />
            <mxPoint x="532.7027027027027" y="1051.2543554006968" as="sourcePoint" />
            <mxPoint x="730" y="1051.2543554006968" as="targetPoint" />
          </mxGeometry>
        </mxCell>
        <mxCell id="111" style="vsdxID=10;edgeStyle=none;startArrow=none;endArrow=none;startSize=5;endSize=5;strokeWidth=4;strokeColor=#000000;spacingTop=-1;spacingBottom=-1;spacingLeft=-1;spacingRight=-1;verticalAlign=middle;html=1;labelBackgroundColor=#ffffff;rounded=0;fontFamily=Arial;fontStyle=2" parent="rFzxfalwFgXO4eg9ru58-133" edge="1">
          <mxGeometry as="geometry">
            <mxPoint as="offset" />
            <Array as="points" />
            <mxPoint x="532.7027027027027" y="992.1951219512194" as="sourcePoint" />
            <mxPoint x="730" y="992.1951219512194" as="targetPoint" />
          </mxGeometry>
        </mxCell>
        <mxCell id="110" style="vsdxID=9;edgeStyle=none;startArrow=none;endArrow=none;startSize=5;endSize=5;strokeWidth=4;strokeColor=#000000;spacingTop=-1;spacingBottom=-1;spacingLeft=-1;spacingRight=-1;verticalAlign=middle;html=1;labelBackgroundColor=#ffffff;rounded=0;fontFamily=Arial;fontStyle=2" parent="rFzxfalwFgXO4eg9ru58-133" edge="1">
          <mxGeometry as="geometry">
            <Array as="points" />
            <mxPoint x="532.7027027027027" y="972.5087108013937" as="sourcePoint" />
            <mxPoint x="532.7027027027027" y="1130" as="targetPoint" />
          </mxGeometry>
        </mxCell>
        <mxCell id="109" style="vsdxID=8;edgeStyle=none;startArrow=none;endArrow=none;startSize=5;endSize=5;strokeWidth=4;strokeColor=#000000;spacingTop=-1;spacingBottom=-1;spacingLeft=-1;spacingRight=-1;verticalAlign=middle;html=1;labelBackgroundColor=#ffffff;rounded=0;fontFamily=Arial;fontStyle=2" parent="rFzxfalwFgXO4eg9ru58-133" edge="1">
          <mxGeometry as="geometry">
            <Array as="points" />
            <mxPoint x="730" y="1070.9407665505225" as="sourcePoint" />
            <mxPoint x="256.48648648648646" y="1070.9407665505225" as="targetPoint" />
          </mxGeometry>
        </mxCell>
        <mxCell id="108" style="vsdxID=7;edgeStyle=none;startArrow=none;endArrow=none;startSize=5;endSize=5;strokeWidth=4;strokeColor=#000000;spacingTop=-1;spacingBottom=-1;spacingLeft=-1;spacingRight=-1;verticalAlign=middle;html=1;labelBackgroundColor=#ffffff;rounded=0;fontFamily=Arial;fontStyle=2" parent="rFzxfalwFgXO4eg9ru58-133" edge="1">
          <mxGeometry as="geometry">
            <Array as="points" />
            <mxPoint x="256.48648648648646" y="913.4494773519164" as="sourcePoint" />
            <mxPoint x="256.48648648648646" y="1130" as="targetPoint" />
          </mxGeometry>
        </mxCell>
        <mxCell id="107" style="vsdxID=6;edgeStyle=none;startArrow=none;endArrow=none;startSize=5;endSize=5;strokeWidth=4;strokeColor=#000000;spacingTop=-1;spacingBottom=-1;spacingLeft=-1;spacingRight=-1;verticalAlign=middle;html=1;labelBackgroundColor=#ffffff;rounded=0;fontFamily=Arial;fontStyle=2" parent="rFzxfalwFgXO4eg9ru58-133" edge="1">
          <mxGeometry as="geometry">
            <Array as="points" />
            <mxPoint x="730" y="972.5087108013937" as="sourcePoint" />
            <mxPoint x="256.48648648648646" y="972.5087108013937" as="targetPoint" />
          </mxGeometry>
        </mxCell>
        <mxCell id="3" value="&lt;font style=&quot;font-size: 11px; color: rgb(0, 0, 0); direction: ltr; letter-spacing: 0px; line-height: 120%; opacity: 1;&quot;&gt;&lt;span&gt;Изм&lt;br&gt;&lt;/span&gt;&lt;/font&gt;" style="verticalAlign=middle;align=center;vsdxID=31;fillColor=none;gradientColor=none;shape=stencil(nZBLDoAgDERP0z3SIyjew0SURgSD+Lu9kMZoXLhwN9O+tukAlrNpJg1SzDH4QW/URgNYgZTkjA4UkwJUgGXng+6DX1zLfmoymdXo17xh5zmRJ6Q42BWCfc2oJfdAr+Yv+AP9Cb7OJ3H/2JG1HNGz/84klThPVCc=);strokeColor=none;strokeWidth=4;spacingTop=-1;spacingBottom=-1;spacingLeft=-1;spacingRight=-1;labelBackgroundColor=none;rounded=0;html=1;whiteSpace=wrap;fontFamily=Arial;fontStyle=2" parent="rFzxfalwFgXO4eg9ru58-133" vertex="1">
          <mxGeometry y="994.163763066202" width="26.635135135135133" height="15.749128919860626" as="geometry" />
        </mxCell>
        <mxCell id="4" value="&lt;font style=&quot;font-size: 11px; color: rgb(0, 0, 0); direction: ltr; letter-spacing: 0px; line-height: 120%; opacity: 1;&quot;&gt;&lt;span&gt;Лист&lt;br&gt;&lt;/span&gt;&lt;/font&gt;" style="verticalAlign=middle;align=center;vsdxID=32;fillColor=none;gradientColor=none;shape=stencil(nZBLDoAgDERP0z3SIyjew0SURgSD+Lu9kMZoXLhwN9O+tukAlrNpJg1SzDH4QW/URgNYgZTkjA4UkwJUgGXng+6DX1zLfmoymdXo17xh5zmRJ6Q42BWCfc2oJfdAr+Yv+AP9Cb7OJ3H/2JG1HNGz/84klThPVCc=);strokeColor=none;strokeWidth=4;spacingTop=-1;spacingBottom=-1;spacingLeft=-1;spacingRight=-1;labelBackgroundColor=none;rounded=0;html=1;whiteSpace=wrap;fontFamily=Arial;fontStyle=2" parent="rFzxfalwFgXO4eg9ru58-133" vertex="1">
          <mxGeometry x="29.594594594594593" y="994.163763066202" width="35.513513513513516" height="15.749128919860626" as="geometry" />
        </mxCell>
        <mxCell id="5" value="&lt;font style=&quot;font-size: 11px; color: rgb(0, 0, 0); direction: ltr; letter-spacing: 0px; line-height: 120%; opacity: 1;&quot;&gt;&lt;span&gt;№ документа&lt;br&gt;&lt;/span&gt;&lt;/font&gt;" style="verticalAlign=middle;align=center;vsdxID=33;fillColor=none;gradientColor=none;shape=stencil(nZBLDoAgDERP0z3SIyjew0SURgSD+Lu9kMZoXLhwN9O+tukAlrNpJg1SzDH4QW/URgNYgZTkjA4UkwJUgGXng+6DX1zLfmoymdXo17xh5zmRJ6Q42BWCfc2oJfdAr+Yv+AP9Cb7OJ3H/2JG1HNGz/84klThPVCc=);strokeColor=none;strokeWidth=4;spacingTop=-1;spacingBottom=-1;spacingLeft=-1;spacingRight=-1;labelBackgroundColor=none;rounded=0;html=1;whiteSpace=wrap;fontFamily=Arial;fontStyle=2" parent="rFzxfalwFgXO4eg9ru58-133" vertex="1">
          <mxGeometry x="69.05405405405406" y="994.163763066202" width="86.8108108108108" height="15.749128919860626" as="geometry" />
        </mxCell>
        <mxCell id="6" value="&lt;font style=&quot;font-size: 11px; color: rgb(0, 0, 0); direction: ltr; letter-spacing: 0px; line-height: 120%; opacity: 1;&quot;&gt;&lt;span&gt;Подпись&lt;br&gt;&lt;/span&gt;&lt;/font&gt;" style="verticalAlign=middle;align=center;vsdxID=34;fillColor=none;gradientColor=none;shape=stencil(nZBLDoAgDERP0z3SIyjew0SURgSD+Lu9kMZoXLhwN9O+tukAlrNpJg1SzDH4QW/URgNYgZTkjA4UkwJUgGXng+6DX1zLfmoymdXo17xh5zmRJ6Q42BWCfc2oJfdAr+Yv+AP9Cb7OJ3H/2JG1HNGz/84klThPVCc=);strokeColor=none;strokeWidth=4;spacingTop=-1;spacingBottom=-1;spacingLeft=-1;spacingRight=-1;labelBackgroundColor=none;rounded=0;html=1;whiteSpace=wrap;fontFamily=Arial;fontStyle=2" parent="rFzxfalwFgXO4eg9ru58-133" vertex="1">
          <mxGeometry x="159.8108108108108" y="994.163763066202" width="55.24324324324324" height="15.749128919860626" as="geometry" />
        </mxCell>
        <mxCell id="7" value="&lt;font style=&quot;font-size: 11px; color: rgb(0, 0, 0); direction: ltr; letter-spacing: 0px; line-height: 120%; opacity: 1;&quot;&gt;&lt;span&gt;Дата&lt;br&gt;&lt;/span&gt;&lt;/font&gt;" style="verticalAlign=middle;align=center;vsdxID=35;fillColor=none;gradientColor=none;shape=stencil(nZBLDoAgDERP0z3SIyjew0SURgSD+Lu9kMZoXLhwN9O+tukAlrNpJg1SzDH4QW/URgNYgZTkjA4UkwJUgGXng+6DX1zLfmoymdXo17xh5zmRJ6Q42BWCfc2oJfdAr+Yv+AP9Cb7OJ3H/2JG1HNGz/84klThPVCc=);strokeColor=none;strokeWidth=4;spacingTop=-1;spacingBottom=-1;spacingLeft=-1;spacingRight=-1;labelBackgroundColor=none;rounded=0;html=1;whiteSpace=wrap;fontFamily=Arial;fontStyle=2" parent="rFzxfalwFgXO4eg9ru58-133" vertex="1">
          <mxGeometry x="219" y="994.163763066202" width="35.513513513513516" height="15.749128919860626" as="geometry" />
        </mxCell>
        <mxCell id="8" value="&lt;font style=&quot;font-size: 11px; color: rgb(0, 0, 0); direction: ltr; letter-spacing: 0px; line-height: 120%; opacity: 1;&quot;&gt;&lt;span&gt;Лит.&lt;br&gt;&lt;/span&gt;&lt;/font&gt;" style="verticalAlign=middle;align=center;vsdxID=36;fillColor=none;gradientColor=none;shape=stencil(nZBLDoAgDERP0z3SIyjew0SURgSD+Lu9kMZoXLhwN9O+tukAlrNpJg1SzDH4QW/URgNYgZTkjA4UkwJUgGXng+6DX1zLfmoymdXo17xh5zmRJ6Q42BWCfc2oJfdAr+Yv+AP9Cb7OJ3H/2JG1HNGz/84klThPVCc=);strokeColor=none;strokeWidth=4;spacingTop=-1;spacingBottom=-1;spacingLeft=-1;spacingRight=-1;labelBackgroundColor=none;rounded=0;html=1;whiteSpace=wrap;fontFamily=Arial;fontStyle=2" parent="rFzxfalwFgXO4eg9ru58-133" vertex="1">
          <mxGeometry x="534.6756756756756" y="974.4773519163762" width="55.24324324324324" height="15.749128919860626" as="geometry" />
        </mxCell>
        <mxCell id="9" value="&lt;font style=&quot;font-size: 11px; color: rgb(0, 0, 0); direction: ltr; letter-spacing: 0px; line-height: 120%; opacity: 1;&quot;&gt;&lt;span&gt;Масса&lt;br&gt;&lt;/span&gt;&lt;/font&gt;" style="verticalAlign=middle;align=center;vsdxID=37;fillColor=none;gradientColor=none;shape=stencil(nZBLDoAgDERP0z3SIyjew0SURgSD+Lu9kMZoXLhwN9O+tukAlrNpJg1SzDH4QW/URgNYgZTkjA4UkwJUgGXng+6DX1zLfmoymdXo17xh5zmRJ6Q42BWCfc2oJfdAr+Yv+AP9Cb7OJ3H/2JG1HNGz/84klThPVCc=);strokeColor=none;strokeWidth=4;spacingTop=-1;spacingBottom=-1;spacingLeft=-1;spacingRight=-1;labelBackgroundColor=none;rounded=0;html=1;whiteSpace=wrap;fontFamily=Arial;fontStyle=2" parent="rFzxfalwFgXO4eg9ru58-133" vertex="1">
          <mxGeometry x="593.8648648648649" y="974.4773519163762" width="65.10810810810811" height="15.749128919860626" as="geometry" />
        </mxCell>
        <mxCell id="10" value="&lt;font style=&quot;font-size: 11px; color: rgb(0, 0, 0); direction: ltr; letter-spacing: 0px; line-height: 120%; opacity: 1;&quot;&gt;&lt;span&gt;Масштаб&lt;br&gt;&lt;/span&gt;&lt;/font&gt;" style="verticalAlign=middle;align=center;vsdxID=38;fillColor=none;gradientColor=none;shape=stencil(nZBLDoAgDERP0z3SIyjew0SURgSD+Lu9kMZoXLhwN9O+tukAlrNpJg1SzDH4QW/URgNYgZTkjA4UkwJUgGXng+6DX1zLfmoymdXo17xh5zmRJ6Q42BWCfc2oJfdAr+Yv+AP9Cb7OJ3H/2JG1HNGz/84klThPVCc=);strokeColor=none;strokeWidth=4;spacingTop=-1;spacingBottom=-1;spacingLeft=-1;spacingRight=-1;labelBackgroundColor=none;rounded=0;html=1;whiteSpace=wrap;fontFamily=Arial;fontStyle=2" parent="rFzxfalwFgXO4eg9ru58-133" vertex="1">
          <mxGeometry x="662.9189189189188" y="974.4773519163762" width="65.10810810810811" height="15.749128919860626" as="geometry" />
        </mxCell>
        <mxCell id="11" value="&lt;font style=&quot;font-size: 11px; color: rgb(0, 0, 0); direction: ltr; letter-spacing: 0px; line-height: 120%; opacity: 1;&quot;&gt;&lt;span&gt;Лист&lt;br&gt;&lt;/span&gt;&lt;/font&gt;" style="verticalAlign=middle;align=center;vsdxID=39;fillColor=none;gradientColor=none;shape=stencil(nZBLDoAgDERP0z3SIyjew0SURgSD+Lu9kMZoXLhwN9O+tukAlrNpJg1SzDH4QW/URgNYgZTkjA4UkwJUgGXng+6DX1zLfmoymdXo17xh5zmRJ6Q42BWCfc2oJfdAr+Yv+AP9Cb7OJ3H/2JG1HNGz/84klThPVCc=);strokeColor=none;strokeWidth=4;spacingTop=-1;spacingBottom=-1;spacingLeft=-1;spacingRight=-1;labelBackgroundColor=none;rounded=0;html=1;whiteSpace=wrap;fontFamily=Arial;fontStyle=2" parent="rFzxfalwFgXO4eg9ru58-133" vertex="1">
          <mxGeometry x="534.6756756756756" y="1053.2229965156794" width="74.97297297297297" height="15.749128919860626" as="geometry" />
        </mxCell>
        <mxCell id="12" value="&lt;font style=&quot;font-size: 11px; color: rgb(0, 0, 0); direction: ltr; letter-spacing: 0px; line-height: 120%; opacity: 1;&quot;&gt;&lt;span&gt;Листов&lt;br&gt;&lt;/span&gt;&lt;/font&gt;" style="verticalAlign=middle;align=center;vsdxID=40;fillColor=none;gradientColor=none;shape=stencil(nZBLDoAgDERP0z3SIyjew0SURgSD+Lu9kMZoXLhwN9O+tukAlrNpJg1SzDH4QW/URgNYgZTkjA4UkwJUgGXng+6DX1zLfmoymdXo17xh5zmRJ6Q42BWCfc2oJfdAr+Yv+AP9Cb7OJ3H/2JG1HNGz/84klThPVCc=);strokeColor=none;strokeWidth=4;spacingTop=-1;spacingBottom=-1;spacingLeft=-1;spacingRight=-1;labelBackgroundColor=none;rounded=0;html=1;whiteSpace=wrap;fontFamily=Arial;fontStyle=2" parent="rFzxfalwFgXO4eg9ru58-133" vertex="1">
          <mxGeometry x="613.5945945945946" y="1053.2229965156794" width="114.43243243243244" height="15.749128919860626" as="geometry" />
        </mxCell>
        <mxCell id="13" value="&lt;p style=&quot;margin-left: 0 ; margin-right: 0 ; margin-top: 0px ; margin-bottom: 0px ; text-indent: 0 ; direction: rtl&quot;&gt;&lt;font style=&quot;font-size: 14px; color: rgb(0, 0, 0); direction: ltr; letter-spacing: 0px; line-height: 120%; opacity: 1;&quot;&gt;&lt;span&gt;.Разраб&lt;br&gt;&lt;/span&gt;&lt;/font&gt;&lt;/p&gt;" style="verticalAlign=middle;align=left;vsdxID=41;fillColor=none;gradientColor=none;shape=stencil(nZBLDoAgDERP0z3SIyjew0SURgSD+Lu9kMZoXLhwN9O+tukAlrNpJg1SzDH4QW/URgNYgZTkjA4UkwJUgGXng+6DX1zLfmoymdXo17xh5zmRJ6Q42BWCfc2oJfdAr+Yv+AP9Cb7OJ3H/2JG1HNGz/84klThPVCc=);strokeColor=none;strokeWidth=4;spacingTop=-1;spacingBottom=-1;spacingLeft=-1;spacingRight=-1;labelBackgroundColor=none;rounded=0;html=1;whiteSpace=wrap;fontFamily=Arial;fontStyle=2" parent="rFzxfalwFgXO4eg9ru58-133" vertex="1">
          <mxGeometry x="1.972972972972973" y="1013.8501742160278" width="65.10810810810811" height="15.749128919860626" as="geometry" />
        </mxCell>
        <mxCell id="14" value="&lt;p style=&quot;margin-left: 0 ; margin-right: 0 ; margin-top: 0px ; margin-bottom: 0px ; text-indent: 0 ; direction: rtl&quot;&gt;&lt;font style=&quot;font-size: 14px; color: rgb(0, 0, 0); direction: ltr; letter-spacing: 0px; line-height: 120%; opacity: 1;&quot;&gt;&lt;span&gt;.Пров&lt;br&gt;&lt;/span&gt;&lt;/font&gt;&lt;/p&gt;" style="verticalAlign=middle;align=left;vsdxID=42;fillColor=none;gradientColor=none;shape=stencil(nZBLDoAgDERP0z3SIyjew0SURgSD+Lu9kMZoXLhwN9O+tukAlrNpJg1SzDH4QW/URgNYgZTkjA4UkwJUgGXng+6DX1zLfmoymdXo17xh5zmRJ6Q42BWCfc2oJfdAr+Yv+AP9Cb7OJ3H/2JG1HNGz/84klThPVCc=);strokeColor=none;strokeWidth=4;spacingTop=-1;spacingBottom=-1;spacingLeft=-1;spacingRight=-1;labelBackgroundColor=none;rounded=0;html=1;whiteSpace=wrap;fontFamily=Arial;fontStyle=2" parent="rFzxfalwFgXO4eg9ru58-133" vertex="1">
          <mxGeometry x="1.972972972972973" y="1031.567944250871" width="63.13513513513514" height="19.686411149825783" as="geometry" />
        </mxCell>
        <mxCell id="15" value="&lt;p style=&quot;margin-left: 0 ; margin-right: 0 ; margin-top: 0px ; margin-bottom: 0px ; text-indent: 0 ; direction: rtl&quot;&gt;&lt;span style=&quot;font-size: 14px;&quot;&gt;Сенкевич&lt;/span&gt;&lt;/p&gt;" style="verticalAlign=middle;align=left;vsdxID=43;fillColor=none;gradientColor=none;shape=stencil(nZBLDoAgDERP0z3SIyjew0SURgSD+Lu9kMZoXLhwN9O+tukAlrNpJg1SzDH4QW/URgNYgZTkjA4UkwJUgGXng+6DX1zLfmoymdXo17xh5zmRJ6Q42BWCfc2oJfdAr+Yv+AP9Cb7OJ3H/2JG1HNGz/84klThPVCc=);strokeColor=none;spacingTop=-1;spacingBottom=-1;spacingLeft=-1;spacingRight=-1;labelBackgroundColor=none;rounded=0;html=1;whiteSpace=wrap;fontFamily=Arial;fontStyle=2" parent="rFzxfalwFgXO4eg9ru58-133" vertex="1">
          <mxGeometry x="69.05405405405406" y="1011.8815331010452" width="86.8108108108108" height="19.686411149825783" as="geometry" />
        </mxCell>
        <mxCell id="16" value="&lt;p style=&quot;margin-left: 0 ; margin-right: 0 ; margin-top: 0px ; margin-bottom: 0px ; text-indent: 0 ; direction: rtl&quot;&gt;&lt;span style=&quot;font-size: 14px;&quot;&gt;Русакович&lt;/span&gt;&lt;/p&gt;" style="verticalAlign=middle;align=left;vsdxID=44;fillColor=none;gradientColor=none;shape=stencil(nZBLDoAgDERP0z3SIyjew0SURgSD+Lu9kMZoXLhwN9O+tukAlrNpJg1SzDH4QW/URgNYgZTkjA4UkwJUgGXng+6DX1zLfmoymdXo17xh5zmRJ6Q42BWCfc2oJfdAr+Yv+AP9Cb7OJ3H/2JG1HNGz/84klThPVCc=);strokeColor=none;spacingTop=-1;spacingBottom=-1;spacingLeft=-1;spacingRight=-1;labelBackgroundColor=none;rounded=0;html=1;whiteSpace=wrap;fontFamily=Arial;fontStyle=2" parent="rFzxfalwFgXO4eg9ru58-133" vertex="1">
          <mxGeometry x="69.05405405405406" y="1031.567944250871" width="86.8108108108108" height="19.686411149825783" as="geometry" />
        </mxCell>
        <mxCell id="17" value="&lt;font style=&quot;font-size: 19px; color: rgb(0, 0, 0); direction: ltr; letter-spacing: 0px; line-height: 120%; opacity: 1;&quot;&gt;&lt;span&gt;ЭВМ, гр. 050503&lt;br&gt;&lt;/span&gt;&lt;/font&gt;" style="verticalAlign=middle;align=center;vsdxID=45;fillColor=none;gradientColor=none;shape=stencil(nZBLDoAgDERP0z3SIyjew0SURgSD+Lu9kMZoXLhwN9O+tukAlrNpJg1SzDH4QW/URgNYgZTkjA4UkwJUgGXng+6DX1zLfmoymdXo17xh5zmRJ6Q42BWCfc2oJfdAr+Yv+AP9Cb7OJ3H/2JG1HNGz/84klThPVCc=);strokeColor=none;spacingTop=-1;spacingBottom=-1;spacingLeft=-1;spacingRight=-1;labelBackgroundColor=none;rounded=0;html=1;whiteSpace=wrap;fontFamily=Arial;fontStyle=2" parent="rFzxfalwFgXO4eg9ru58-133" vertex="1">
          <mxGeometry x="531.7162162162161" y="1070.9407665505225" width="197.29729729729732" height="59.05923344947735" as="geometry" />
        </mxCell>
        <mxCell id="18" value="&lt;font style=&quot;font-size: 33px; color: rgb(0, 0, 0); direction: ltr; letter-spacing: 0px; line-height: 120%; opacity: 1;&quot;&gt;&lt;span&gt;ГУИР.400201.080 Д1&lt;br&gt;&lt;/span&gt;&lt;/font&gt;" style="verticalAlign=middle;align=center;vsdxID=46;fillColor=none;gradientColor=none;shape=stencil(nZBLDoAgDERP0z3SIyjew0SURgSD+Lu9kMZoXLhwN9O+tukAlrNpJg1SzDH4QW/URgNYgZTkjA4UkwJUgGXng+6DX1zLfmoymdXo17xh5zmRJ6Q42BWCfc2oJfdAr+Yv+AP9Cb7OJ3H/2JG1HNGz/84klThPVCc=);strokeColor=none;spacingTop=-1;spacingBottom=-1;spacingLeft=-1;spacingRight=-1;labelBackgroundColor=none;rounded=0;html=1;whiteSpace=wrap;fontFamily=Arial;fontStyle=2" parent="rFzxfalwFgXO4eg9ru58-133" vertex="1">
          <mxGeometry x="256.48648648648646" y="913.4494773519164" width="473.5135135135135" height="59.05923344947735" as="geometry" />
        </mxCell>
        <mxCell id="19" value="&lt;div style=&quot;font-size: 20px;&quot;&gt;&lt;div style=&quot;font-size: 23px;&quot;&gt;&lt;span style=&quot;background-color: initial;&quot;&gt;Локальная компьютерная сеть.&amp;nbsp;&lt;/span&gt;&lt;/div&gt;&lt;div style=&quot;font-size: 23px;&quot;&gt;&lt;span style=&quot;letter-spacing: 0px; background-color: initial;&quot;&gt;Ведомость документов&lt;/span&gt;&lt;/div&gt;&lt;/div&gt;" style="verticalAlign=middle;align=center;vsdxID=47;fillColor=none;gradientColor=none;shape=stencil(nZBLDoAgDERP0z3SIyjew0SURgSD+Lu9kMZoXLhwN9O+tukAlrNpJg1SzDH4QW/URgNYgZTkjA4UkwJUgGXng+6DX1zLfmoymdXo17xh5zmRJ6Q42BWCfc2oJfdAr+Yv+AP9Cb7OJ3H/2JG1HNGz/84klThPVCc=);strokeColor=none;spacingTop=-1;spacingBottom=-1;spacingLeft=-1;spacingRight=-1;labelBackgroundColor=none;rounded=0;html=1;whiteSpace=wrap;fontFamily=Arial;fontStyle=2" parent="rFzxfalwFgXO4eg9ru58-133" vertex="1">
          <mxGeometry x="256.48648648648646" y="972.5087108013937" width="276.21621621621625" height="98.43205574912892" as="geometry" />
        </mxCell>
        <mxCell id="20" value="&lt;font style=&quot;font-size: 19px; color: rgb(0, 0, 0); direction: ltr; letter-spacing: 0px; line-height: 120%; opacity: 1;&quot;&gt;&lt;span&gt;У&lt;br&gt;&lt;/span&gt;&lt;/font&gt;" style="verticalAlign=middle;align=center;vsdxID=48;fillColor=none;gradientColor=none;shape=stencil(nZBLDoAgDERP0z3SIyjew0SURgSD+Lu9kMZoXLhwN9O+tukAlrNpJg1SzDH4QW/URgNYgZTkjA4UkwJUgGXng+6DX1zLfmoymdXo17xh5zmRJ6Q42BWCfc2oJfdAr+Yv+AP9Cb7OJ3H/2JG1HNGz/84klThPVCc=);strokeColor=none;spacingTop=-1;spacingBottom=-1;spacingLeft=-1;spacingRight=-1;labelBackgroundColor=none;rounded=0;html=1;whiteSpace=wrap;fontFamily=Arial;fontStyle=2" parent="rFzxfalwFgXO4eg9ru58-133" vertex="1">
          <mxGeometry x="552.4324324324325" y="992.1951219512194" width="19.72972972972973" height="59.05923344947735" as="geometry" />
        </mxCell>
        <mxCell id="21" value="&lt;font style=&quot;font-size: 11px; color: rgb(0, 0, 0); direction: ltr; letter-spacing: 0px; line-height: 120%; opacity: 1;&quot;&gt;&lt;span&gt;1&lt;br&gt;&lt;/span&gt;&lt;/font&gt;" style="verticalAlign=middle;align=center;vsdxID=49;fillColor=none;gradientColor=none;shape=stencil(nZBLDoAgDERP0z3SIyjew0SURgSD+Lu9kMZoXLhwN9O+tukAlrNpJg1SzDH4QW/URgNYgZTkjA4UkwJUgGXng+6DX1zLfmoymdXo17xh5zmRJ6Q42BWCfc2oJfdAr+Yv+AP9Cb7OJ3H/2JG1HNGz/84klThPVCc=);strokeColor=none;spacingTop=-1;spacingBottom=-1;spacingLeft=-1;spacingRight=-1;labelBackgroundColor=none;rounded=0;html=1;whiteSpace=wrap;fontFamily=Arial;fontStyle=2" parent="rFzxfalwFgXO4eg9ru58-133" vertex="1">
          <mxGeometry x="699.418918918919" y="1052.2386759581882" width="19.72972972972973" height="15.749128919860626" as="geometry" />
        </mxCell>
        <mxCell id="22" value="&lt;font style=&quot;font-size: 16px; color: rgb(0, 0, 0); direction: ltr; letter-spacing: 0px; line-height: 120%; opacity: 1;&quot;&gt;&lt;span&gt;Обозначение&lt;br&gt;&lt;/span&gt;&lt;/font&gt;" style="verticalAlign=middle;align=center;vsdxID=50;fillColor=none;gradientColor=none;shape=stencil(nZBLDoAgDERP0z3SIyjew0SURgSD+Lu9kMZoXLhwN9O+tukAlrNpJg1SzDH4QW/URgNYgZTkjA4UkwJUgGXng+6DX1zLfmoymdXo17xh5zmRJ6Q42BWCfc2oJfdAr+Yv+AP9Cb7OJ3H/2JG1HNGz/84klThPVCc=);strokeWidth=3;labelBackgroundColor=none;rounded=0;html=1;whiteSpace=wrap;fontStyle=2;fontFamily=Arial;spacingLeft=2;" parent="rFzxfalwFgXO4eg9ru58-133" vertex="1">
          <mxGeometry width="236.75675675675674" height="59.05923344947735" as="geometry" />
        </mxCell>
        <mxCell id="23" value="&lt;font style=&quot;font-size: 16px; color: rgb(0, 0, 0); direction: ltr; letter-spacing: 0px; line-height: 120%; opacity: 1;&quot;&gt;&lt;span&gt;Наименование&lt;br&gt;&lt;/span&gt;&lt;/font&gt;" style="verticalAlign=middle;align=center;vsdxID=51;fillColor=none;gradientColor=none;shape=stencil(nZBLDoAgDERP0z3SIyjew0SURgSD+Lu9kMZoXLhwN9O+tukAlrNpJg1SzDH4QW/URgNYgZTkjA4UkwJUgGXng+6DX1zLfmoymdXo17xh5zmRJ6Q42BWCfc2oJfdAr+Yv+AP9Cb7OJ3H/2JG1HNGz/84klThPVCc=);strokeWidth=3;labelBackgroundColor=none;rounded=0;html=1;whiteSpace=wrap;fontStyle=2;fontFamily=Arial;spacingLeft=2;" parent="rFzxfalwFgXO4eg9ru58-133" vertex="1">
          <mxGeometry x="236.75675675675674" width="374.86486486486484" height="59.05923344947735" as="geometry" />
        </mxCell>
        <mxCell id="24" value="&lt;font style=&quot;font-size: 16px; color: rgb(0, 0, 0); direction: ltr; letter-spacing: 0px; line-height: 120%; opacity: 1;&quot;&gt;&lt;span&gt;Примечание&lt;br&gt;&lt;/span&gt;&lt;/font&gt;" style="verticalAlign=middle;align=center;vsdxID=52;fillColor=none;gradientColor=none;shape=stencil(nZBLDoAgDERP0z3SIyjew0SURgSD+Lu9kMZoXLhwN9O+tukAlrNpJg1SzDH4QW/URgNYgZTkjA4UkwJUgGXng+6DX1zLfmoymdXo17xh5zmRJ6Q42BWCfc2oJfdAr+Yv+AP9Cb7OJ3H/2JG1HNGz/84klThPVCc=);strokeWidth=3;labelBackgroundColor=none;rounded=0;html=1;whiteSpace=wrap;fontStyle=2;fontFamily=Arial;" parent="rFzxfalwFgXO4eg9ru58-133" vertex="1">
          <mxGeometry x="611.6216216216216" width="118.37837837837837" height="59.05923344947735" as="geometry" />
        </mxCell>
        <mxCell id="25" style="vsdxID=53;fillColor=none;gradientColor=none;shape=stencil(nZBLDoAgDERP0z3SIyjew0SURgSD+Lu9kMZoXLhwN9O+tukAlrNpJg1SzDH4QW/URgNYgZTkjA4UkwJUgGXng+6DX1zLfmoymdXo17xh5zmRJ6Q42BWCfc2oJfdAr+Yv+AP9Cb7OJ3H/2JG1HNGz/84klThPVCc=);labelBackgroundColor=none;rounded=0;html=1;whiteSpace=wrap;fontStyle=2;fontFamily=Arial;align=left;fontSize=16;spacingLeft=2;" parent="rFzxfalwFgXO4eg9ru58-133" vertex="1">
          <mxGeometry y="59.05923344947735" width="236.75675675675674" height="31.49825783972125" as="geometry" />
        </mxCell>
        <mxCell id="26" style="vsdxID=54;fillColor=none;gradientColor=none;shape=stencil(nZBLDoAgDERP0z3SIyjew0SURgSD+Lu9kMZoXLhwN9O+tukAlrNpJg1SzDH4QW/URgNYgZTkjA4UkwJUgGXng+6DX1zLfmoymdXo17xh5zmRJ6Q42BWCfc2oJfdAr+Yv+AP9Cb7OJ3H/2JG1HNGz/84klThPVCc=);labelBackgroundColor=none;rounded=0;html=1;whiteSpace=wrap;fontStyle=2;fontFamily=Arial;align=left;fontSize=16;spacingLeft=2;" parent="rFzxfalwFgXO4eg9ru58-133" vertex="1">
          <mxGeometry x="236.75675675675674" y="59.05923344947735" width="374.86486486486484" height="31.49825783972125" as="geometry" />
        </mxCell>
        <mxCell id="27" style="vsdxID=55;fillColor=none;gradientColor=none;shape=stencil(nZBLDoAgDERP0z3SIyjew0SURgSD+Lu9kMZoXLhwN9O+tukAlrNpJg1SzDH4QW/URgNYgZTkjA4UkwJUgGXng+6DX1zLfmoymdXo17xh5zmRJ6Q42BWCfc2oJfdAr+Yv+AP9Cb7OJ3H/2JG1HNGz/84klThPVCc=);labelBackgroundColor=none;rounded=0;html=1;whiteSpace=wrap;fontStyle=2;fontFamily=Arial;align=center;fontSize=16;" parent="rFzxfalwFgXO4eg9ru58-133" vertex="1">
          <mxGeometry x="611.6216216216216" y="59.05923344947735" width="118.37837837837837" height="31.49825783972125" as="geometry" />
        </mxCell>
        <mxCell id="28" style="vsdxID=56;fillColor=none;gradientColor=none;shape=stencil(nZBLDoAgDERP0z3SIyjew0SURgSD+Lu9kMZoXLhwN9O+tukAlrNpJg1SzDH4QW/URgNYgZTkjA4UkwJUgGXng+6DX1zLfmoymdXo17xh5zmRJ6Q42BWCfc2oJfdAr+Yv+AP9Cb7OJ3H/2JG1HNGz/84klThPVCc=);labelBackgroundColor=none;rounded=0;html=1;whiteSpace=wrap;fontStyle=2;fontFamily=Arial;align=left;fontSize=16;spacingLeft=2;" parent="rFzxfalwFgXO4eg9ru58-133" vertex="1">
          <mxGeometry y="90.5574912891986" width="236.75675675675674" height="31.49825783972125" as="geometry" />
        </mxCell>
        <mxCell id="29" value="&lt;font style=&quot;direction: ltr; line-height: 120%; opacity: 1; letter-spacing: 0px; font-size: 19px; color: rgb(0, 0, 0);&quot;&gt;&lt;u&gt;&lt;span&gt;Графические материалы&lt;br&gt;&lt;/span&gt;&lt;/u&gt;&lt;/font&gt;" style="verticalAlign=middle;align=left;vsdxID=57;fillColor=none;gradientColor=none;shape=stencil(nZBLDoAgDERP0z3SIyjew0SURgSD+Lu9kMZoXLhwN9O+tukAlrNpJg1SzDH4QW/URgNYgZTkjA4UkwJUgGXng+6DX1zLfmoymdXo17xh5zmRJ6Q42BWCfc2oJfdAr+Yv+AP9Cb7OJ3H/2JG1HNGz/84klThPVCc=);labelBackgroundColor=none;rounded=0;html=1;whiteSpace=wrap;spacingLeft=2;fontStyle=2;fontFamily=Arial;" parent="rFzxfalwFgXO4eg9ru58-133" vertex="1">
          <mxGeometry x="236.75675675675674" y="90.5574912891986" width="374.86486486486484" height="31.49825783972125" as="geometry" />
        </mxCell>
        <mxCell id="30" style="vsdxID=58;fillColor=none;gradientColor=none;shape=stencil(nZBLDoAgDERP0z3SIyjew0SURgSD+Lu9kMZoXLhwN9O+tukAlrNpJg1SzDH4QW/URgNYgZTkjA4UkwJUgGXng+6DX1zLfmoymdXo17xh5zmRJ6Q42BWCfc2oJfdAr+Yv+AP9Cb7OJ3H/2JG1HNGz/84klThPVCc=);labelBackgroundColor=none;rounded=0;html=1;whiteSpace=wrap;fontStyle=2;fontFamily=Arial;align=center;fontSize=16;" parent="rFzxfalwFgXO4eg9ru58-133" vertex="1">
          <mxGeometry x="611.6216216216216" y="90.5574912891986" width="118.37837837837837" height="31.49825783972125" as="geometry" />
        </mxCell>
        <mxCell id="31" value="&lt;div style=&quot;font-size: 16px;&quot;&gt;&lt;span style=&quot;font-size: 16px; letter-spacing: 0px;&quot;&gt;ГУИР.400201.080 С1&lt;/span&gt;&lt;/div&gt;" style="verticalAlign=middle;align=left;vsdxID=59;fillColor=none;gradientColor=none;shape=stencil(nZBLDoAgDERP0z3SIyjew0SURgSD+Lu9kMZoXLhwN9O+tukAlrNpJg1SzDH4QW/URgNYgZTkjA4UkwJUgGXng+6DX1zLfmoymdXo17xh5zmRJ6Q42BWCfc2oJfdAr+Yv+AP9Cb7OJ3H/2JG1HNGz/84klThPVCc=);labelBackgroundColor=none;rounded=0;html=1;whiteSpace=wrap;spacingLeft=2;fontStyle=2;fontFamily=Arial;fontSize=16;" parent="rFzxfalwFgXO4eg9ru58-133" vertex="1">
          <mxGeometry y="122.05574912891986" width="236.75675675675674" height="31.49825783972125" as="geometry" />
        </mxCell>
        <mxCell id="32" value="&lt;p class=&quot;MsoNormal&quot; style=&quot;margin: 0cm;&quot;&gt;&lt;span style=&quot;&quot; lang=&quot;RU&quot;&gt;&lt;font style=&quot;font-size: 16px;&quot;&gt;Локальная компьютерная сеть.&amp;nbsp;&amp;nbsp;&lt;/font&gt;&lt;/span&gt;&lt;br&gt;&lt;/p&gt;" style="verticalAlign=middle;align=left;vsdxID=60;fillColor=none;gradientColor=none;shape=stencil(nZBLDoAgDERP0z3SIyjew0SURgSD+Lu9kMZoXLhwN9O+tukAlrNpJg1SzDH4QW/URgNYgZTkjA4UkwJUgGXng+6DX1zLfmoymdXo17xh5zmRJ6Q42BWCfc2oJfdAr+Yv+AP9Cb7OJ3H/2JG1HNGz/84klThPVCc=);labelBackgroundColor=none;rounded=0;html=1;whiteSpace=wrap;spacingLeft=2;fontStyle=2;fontFamily=Arial;fontSize=16;" parent="rFzxfalwFgXO4eg9ru58-133" vertex="1">
          <mxGeometry x="236.75675675675674" y="122.05574912891986" width="374.86486486486484" height="31.49825783972125" as="geometry" />
        </mxCell>
        <mxCell id="33" value="&lt;p style=&quot;margin: 0px; text-indent: 0px; direction: ltr; font-size: 16px;&quot;&gt;&lt;font style=&quot;font-size: 16px; letter-spacing: 0px; direction: ltr; line-height: 19.2px; opacity: 1;&quot;&gt;&lt;span style=&quot;font-size: 16px;&quot;&gt;A2&lt;/span&gt;&lt;/font&gt;&lt;br style=&quot;font-size: 16px;&quot;&gt;&lt;/p&gt;" style="verticalAlign=middle;align=center;vsdxID=61;fillColor=none;gradientColor=none;shape=stencil(nZBLDoAgDERP0z3SIyjew0SURgSD+Lu9kMZoXLhwN9O+tukAlrNpJg1SzDH4QW/URgNYgZTkjA4UkwJUgGXng+6DX1zLfmoymdXo17xh5zmRJ6Q42BWCfc2oJfdAr+Yv+AP9Cb7OJ3H/2JG1HNGz/84klThPVCc=);labelBackgroundColor=none;rounded=0;html=1;whiteSpace=wrap;fontStyle=2;fontFamily=Arial;fontSize=16;" parent="rFzxfalwFgXO4eg9ru58-133" vertex="1">
          <mxGeometry x="611.6216216216216" y="122.05574912891986" width="118.37837837837837" height="31.49825783972125" as="geometry" />
        </mxCell>
        <mxCell id="34" style="vsdxID=62;fillColor=none;gradientColor=none;shape=stencil(nZBLDoAgDERP0z3SIyjew0SURgSD+Lu9kMZoXLhwN9O+tukAlrNpJg1SzDH4QW/URgNYgZTkjA4UkwJUgGXng+6DX1zLfmoymdXo17xh5zmRJ6Q42BWCfc2oJfdAr+Yv+AP9Cb7OJ3H/2JG1HNGz/84klThPVCc=);labelBackgroundColor=none;rounded=0;html=1;whiteSpace=wrap;fontStyle=2;fontFamily=Arial;align=left;fontSize=16;spacingLeft=2;" parent="rFzxfalwFgXO4eg9ru58-133" vertex="1">
          <mxGeometry y="153.5540069686411" width="236.75675675675674" height="31.49825783972125" as="geometry" />
        </mxCell>
        <mxCell id="35" value="&lt;p class=&quot;MsoNormal&quot; style=&quot;margin: 0cm; font-size: 16px;&quot;&gt;Схема СКС структурная&lt;br&gt;&lt;/p&gt;" style="vsdxID=63;fillColor=none;gradientColor=none;shape=stencil(nZBLDoAgDERP0z3SIyjew0SURgSD+Lu9kMZoXLhwN9O+tukAlrNpJg1SzDH4QW/URgNYgZTkjA4UkwJUgGXng+6DX1zLfmoymdXo17xh5zmRJ6Q42BWCfc2oJfdAr+Yv+AP9Cb7OJ3H/2JG1HNGz/84klThPVCc=);labelBackgroundColor=none;rounded=0;html=1;whiteSpace=wrap;fontFamily=Arial;align=left;spacingLeft=2;fontStyle=2;fontSize=16;" parent="rFzxfalwFgXO4eg9ru58-133" vertex="1">
          <mxGeometry x="236.75675675675674" y="153.5540069686411" width="374.86486486486484" height="31.49825783972125" as="geometry" />
        </mxCell>
        <mxCell id="36" style="vsdxID=64;fillColor=none;gradientColor=none;shape=stencil(nZBLDoAgDERP0z3SIyjew0SURgSD+Lu9kMZoXLhwN9O+tukAlrNpJg1SzDH4QW/URgNYgZTkjA4UkwJUgGXng+6DX1zLfmoymdXo17xh5zmRJ6Q42BWCfc2oJfdAr+Yv+AP9Cb7OJ3H/2JG1HNGz/84klThPVCc=);labelBackgroundColor=none;rounded=0;html=1;whiteSpace=wrap;fontStyle=2;fontFamily=Arial;align=center;fontSize=16;" parent="rFzxfalwFgXO4eg9ru58-133" vertex="1">
          <mxGeometry x="611.6216216216216" y="153.5540069686411" width="118.37837837837837" height="31.49825783972125" as="geometry" />
        </mxCell>
        <mxCell id="37" value="&lt;font style=&quot;font-size: 16px; color: rgb(0, 0, 0); direction: ltr; letter-spacing: 0px; line-height: 120%; opacity: 1;&quot;&gt;&lt;span style=&quot;font-size: 16px;&quot;&gt;&lt;br style=&quot;font-size: 16px;&quot;&gt;&lt;/span&gt;&lt;/font&gt;" style="verticalAlign=middle;align=left;vsdxID=65;fillColor=none;gradientColor=none;shape=stencil(nZBLDoAgDERP0z3SIyjew0SURgSD+Lu9kMZoXLhwN9O+tukAlrNpJg1SzDH4QW/URgNYgZTkjA4UkwJUgGXng+6DX1zLfmoymdXo17xh5zmRJ6Q42BWCfc2oJfdAr+Yv+AP9Cb7OJ3H/2JG1HNGz/84klThPVCc=);labelBackgroundColor=none;rounded=0;html=1;whiteSpace=wrap;fontStyle=2;fontFamily=Arial;fontSize=16;spacingLeft=2;" parent="rFzxfalwFgXO4eg9ru58-133" vertex="1">
          <mxGeometry y="185.05226480836237" width="236.75675675675674" height="31.49825783972125" as="geometry" />
        </mxCell>
        <mxCell id="38" value="&lt;font style=&quot;font-size: 16px ; color: rgb(0 , 0 , 0) ; direction: ltr ; letter-spacing: 0px ; line-height: 120% ; opacity: 1&quot;&gt;&lt;span style=&quot;font-size: 16px;&quot;&gt;&lt;br style=&quot;font-size: 16px;&quot;&gt;&lt;/span&gt;&lt;/font&gt;" style="verticalAlign=middle;align=left;vsdxID=66;fillColor=none;gradientColor=none;shape=stencil(nZBLDoAgDERP0z3SIyjew0SURgSD+Lu9kMZoXLhwN9O+tukAlrNpJg1SzDH4QW/URgNYgZTkjA4UkwJUgGXng+6DX1zLfmoymdXo17xh5zmRJ6Q42BWCfc2oJfdAr+Yv+AP9Cb7OJ3H/2JG1HNGz/84klThPVCc=);labelBackgroundColor=none;rounded=0;html=1;whiteSpace=wrap;fontFamily=Arial;fontStyle=2;fontSize=16;spacingLeft=2;" parent="rFzxfalwFgXO4eg9ru58-133" vertex="1">
          <mxGeometry x="236.75675675675674" y="185.05226480836237" width="374.86486486486484" height="31.49825783972125" as="geometry" />
        </mxCell>
        <mxCell id="39" value="&lt;font style=&quot;font-size: 16px; color: rgb(0, 0, 0); direction: ltr; letter-spacing: 0px; line-height: 120%; opacity: 1;&quot;&gt;&lt;span style=&quot;font-size: 16px;&quot;&gt;&lt;br style=&quot;font-size: 16px;&quot;&gt;&lt;/span&gt;&lt;/font&gt;" style="verticalAlign=middle;align=center;vsdxID=67;fillColor=none;gradientColor=none;shape=stencil(nZBLDoAgDERP0z3SIyjew0SURgSD+Lu9kMZoXLhwN9O+tukAlrNpJg1SzDH4QW/URgNYgZTkjA4UkwJUgGXng+6DX1zLfmoymdXo17xh5zmRJ6Q42BWCfc2oJfdAr+Yv+AP9Cb7OJ3H/2JG1HNGz/84klThPVCc=);labelBackgroundColor=none;rounded=0;html=1;whiteSpace=wrap;fontStyle=2;fontFamily=Arial;fontSize=16;" parent="rFzxfalwFgXO4eg9ru58-133" vertex="1">
          <mxGeometry x="611.6216216216216" y="185.05226480836237" width="118.37837837837837" height="31.49825783972125" as="geometry" />
        </mxCell>
        <mxCell id="40" value="ГУИР.400201.080 С2" style="vsdxID=68;fillColor=none;gradientColor=none;shape=stencil(nZBLDoAgDERP0z3SIyjew0SURgSD+Lu9kMZoXLhwN9O+tukAlrNpJg1SzDH4QW/URgNYgZTkjA4UkwJUgGXng+6DX1zLfmoymdXo17xh5zmRJ6Q42BWCfc2oJfdAr+Yv+AP9Cb7OJ3H/2JG1HNGz/84klThPVCc=);labelBackgroundColor=none;rounded=0;html=1;whiteSpace=wrap;align=left;spacingLeft=2;fontStyle=2;fontFamily=Arial;fontSize=16;" parent="rFzxfalwFgXO4eg9ru58-133" vertex="1">
          <mxGeometry y="216.55052264808361" width="236.75675675675674" height="31.49825783972125" as="geometry" />
        </mxCell>
        <mxCell id="41" value="Локальная компьютерная сеть.&amp;nbsp;&amp;nbsp;" style="vsdxID=69;fillColor=none;gradientColor=none;shape=stencil(nZBLDoAgDERP0z3SIyjew0SURgSD+Lu9kMZoXLhwN9O+tukAlrNpJg1SzDH4QW/URgNYgZTkjA4UkwJUgGXng+6DX1zLfmoymdXo17xh5zmRJ6Q42BWCfc2oJfdAr+Yv+AP9Cb7OJ3H/2JG1HNGz/84klThPVCc=);labelBackgroundColor=none;rounded=0;html=1;whiteSpace=wrap;align=left;spacingLeft=2;fontStyle=2;fontFamily=Arial;fontSize=16;" parent="rFzxfalwFgXO4eg9ru58-133" vertex="1">
          <mxGeometry x="236.75675675675674" y="216.55052264808361" width="374.86486486486484" height="31.49825783972125" as="geometry" />
        </mxCell>
        <mxCell id="43" value="&lt;font style=&quot;font-size: 16px; color: rgb(0, 0, 0); direction: ltr; letter-spacing: 0px; line-height: 120%; opacity: 1;&quot;&gt;&lt;span style=&quot;font-size: 16px;&quot;&gt;&lt;br style=&quot;font-size: 16px;&quot;&gt;&lt;/span&gt;&lt;/font&gt;" style="verticalAlign=middle;align=left;vsdxID=71;fillColor=none;gradientColor=none;shape=stencil(nZBLDoAgDERP0z3SIyjew0SURgSD+Lu9kMZoXLhwN9O+tukAlrNpJg1SzDH4QW/URgNYgZTkjA4UkwJUgGXng+6DX1zLfmoymdXo17xh5zmRJ6Q42BWCfc2oJfdAr+Yv+AP9Cb7OJ3H/2JG1HNGz/84klThPVCc=);labelBackgroundColor=none;rounded=0;html=1;whiteSpace=wrap;fontStyle=2;fontFamily=Arial;fontSize=16;spacingLeft=2;" parent="rFzxfalwFgXO4eg9ru58-133" vertex="1">
          <mxGeometry y="248.04878048780486" width="236.75675675675674" height="31.49825783972125" as="geometry" />
        </mxCell>
        <mxCell id="44" value="&lt;font style=&quot;font-size: 16px; color: rgb(0, 0, 0); direction: ltr; letter-spacing: 0px; line-height: 120%; opacity: 1;&quot;&gt;Схема СКС функциональная&lt;span style=&quot;font-size: 16px;&quot;&gt;&lt;br style=&quot;font-size: 16px;&quot;&gt;&lt;/span&gt;&lt;/font&gt;" style="verticalAlign=middle;align=left;vsdxID=72;fillColor=none;gradientColor=none;shape=stencil(nZBLDoAgDERP0z3SIyjew0SURgSD+Lu9kMZoXLhwN9O+tukAlrNpJg1SzDH4QW/URgNYgZTkjA4UkwJUgGXng+6DX1zLfmoymdXo17xh5zmRJ6Q42BWCfc2oJfdAr+Yv+AP9Cb7OJ3H/2JG1HNGz/84klThPVCc=);labelBackgroundColor=none;rounded=0;html=1;whiteSpace=wrap;spacingLeft=2;fontStyle=2;fontFamily=Arial;fontSize=16;" parent="rFzxfalwFgXO4eg9ru58-133" vertex="1">
          <mxGeometry x="236.75675675675674" y="248.04878048780486" width="374.86486486486484" height="31.49825783972125" as="geometry" />
        </mxCell>
        <mxCell id="46" style="vsdxID=74;fillColor=none;gradientColor=none;shape=stencil(nZBLDoAgDERP0z3SIyjew0SURgSD+Lu9kMZoXLhwN9O+tukAlrNpJg1SzDH4QW/URgNYgZTkjA4UkwJUgGXng+6DX1zLfmoymdXo17xh5zmRJ6Q42BWCfc2oJfdAr+Yv+AP9Cb7OJ3H/2JG1HNGz/84klThPVCc=);labelBackgroundColor=none;rounded=0;html=1;whiteSpace=wrap;fontStyle=2;fontFamily=Arial;align=left;fontSize=16;spacingLeft=2;" parent="rFzxfalwFgXO4eg9ru58-133" vertex="1">
          <mxGeometry y="279.5470383275261" width="236.75675675675674" height="31.49825783972125" as="geometry" />
        </mxCell>
        <mxCell id="47" value="" style="vsdxID=75;fillColor=none;gradientColor=none;shape=stencil(nZBLDoAgDERP0z3SIyjew0SURgSD+Lu9kMZoXLhwN9O+tukAlrNpJg1SzDH4QW/URgNYgZTkjA4UkwJUgGXng+6DX1zLfmoymdXo17xh5zmRJ6Q42BWCfc2oJfdAr+Yv+AP9Cb7OJ3H/2JG1HNGz/84klThPVCc=);labelBackgroundColor=none;rounded=0;html=1;whiteSpace=wrap;fontStyle=2;fontFamily=Arial;align=left;fontSize=16;spacingLeft=2;" parent="rFzxfalwFgXO4eg9ru58-133" vertex="1">
          <mxGeometry x="236.75675675675674" y="279.5470383275261" width="374.86486486486484" height="31.49825783972125" as="geometry" />
        </mxCell>
        <mxCell id="48" style="vsdxID=76;fillColor=none;gradientColor=none;shape=stencil(nZBLDoAgDERP0z3SIyjew0SURgSD+Lu9kMZoXLhwN9O+tukAlrNpJg1SzDH4QW/URgNYgZTkjA4UkwJUgGXng+6DX1zLfmoymdXo17xh5zmRJ6Q42BWCfc2oJfdAr+Yv+AP9Cb7OJ3H/2JG1HNGz/84klThPVCc=);labelBackgroundColor=none;rounded=0;html=1;whiteSpace=wrap;fontStyle=2;fontFamily=Arial;align=center;fontSize=16;" parent="rFzxfalwFgXO4eg9ru58-133" vertex="1">
          <mxGeometry x="611.6216216216216" y="279.5470383275261" width="118.37837837837837" height="31.49825783972125" as="geometry" />
        </mxCell>
        <mxCell id="49" value="ГУИР.400201.080 С3" style="verticalAlign=middle;align=left;vsdxID=77;fillColor=none;gradientColor=none;shape=stencil(nZBLDoAgDERP0z3SIyjew0SURgSD+Lu9kMZoXLhwN9O+tukAlrNpJg1SzDH4QW/URgNYgZTkjA4UkwJUgGXng+6DX1zLfmoymdXo17xh5zmRJ6Q42BWCfc2oJfdAr+Yv+AP9Cb7OJ3H/2JG1HNGz/84klThPVCc=);labelBackgroundColor=none;rounded=0;html=1;whiteSpace=wrap;spacingLeft=2;fontStyle=2;fontFamily=Arial;fontSize=16;" parent="rFzxfalwFgXO4eg9ru58-133" vertex="1">
          <mxGeometry y="311.0452961672474" width="236.75675675675674" height="31.49825783972125" as="geometry" />
        </mxCell>
        <mxCell id="50" value="Локальная компьютерная сеть.&amp;nbsp;&amp;nbsp;" style="verticalAlign=middle;align=left;vsdxID=78;fillColor=none;gradientColor=none;shape=stencil(nZBLDoAgDERP0z3SIyjew0SURgSD+Lu9kMZoXLhwN9O+tukAlrNpJg1SzDH4QW/URgNYgZTkjA4UkwJUgGXng+6DX1zLfmoymdXo17xh5zmRJ6Q42BWCfc2oJfdAr+Yv+AP9Cb7OJ3H/2JG1HNGz/84klThPVCc=);labelBackgroundColor=none;rounded=0;html=1;whiteSpace=wrap;spacingLeft=2;fontStyle=2;fontFamily=Arial;fontSize=16;" parent="rFzxfalwFgXO4eg9ru58-133" vertex="1">
          <mxGeometry x="236.75675675675674" y="311.0452961672474" width="374.86486486486484" height="31.49825783972125" as="geometry" />
        </mxCell>
        <mxCell id="51" value="А4" style="verticalAlign=middle;align=center;vsdxID=79;fillColor=none;gradientColor=none;shape=stencil(nZBLDoAgDERP0z3SIyjew0SURgSD+Lu9kMZoXLhwN9O+tukAlrNpJg1SzDH4QW/URgNYgZTkjA4UkwJUgGXng+6DX1zLfmoymdXo17xh5zmRJ6Q42BWCfc2oJfdAr+Yv+AP9Cb7OJ3H/2JG1HNGz/84klThPVCc=);labelBackgroundColor=none;rounded=0;html=1;whiteSpace=wrap;fontStyle=2;fontFamily=Arial;fontSize=16;" parent="rFzxfalwFgXO4eg9ru58-133" vertex="1">
          <mxGeometry x="611.6216216216216" y="311.0452961672474" width="118.37837837837837" height="31.49825783972125" as="geometry" />
        </mxCell>
        <mxCell id="52" style="vsdxID=80;fillColor=none;gradientColor=none;shape=stencil(nZBLDoAgDERP0z3SIyjew0SURgSD+Lu9kMZoXLhwN9O+tukAlrNpJg1SzDH4QW/URgNYgZTkjA4UkwJUgGXng+6DX1zLfmoymdXo17xh5zmRJ6Q42BWCfc2oJfdAr+Yv+AP9Cb7OJ3H/2JG1HNGz/84klThPVCc=);labelBackgroundColor=none;rounded=0;html=1;whiteSpace=wrap;fontStyle=2;fontFamily=Arial;align=left;fontSize=16;spacingLeft=2;" parent="rFzxfalwFgXO4eg9ru58-133" vertex="1">
          <mxGeometry y="342.54355400696863" width="236.75675675675674" height="31.49825783972125" as="geometry" />
        </mxCell>
        <mxCell id="53" style="vsdxID=81;fillColor=none;gradientColor=none;shape=stencil(nZBLDoAgDERP0z3SIyjew0SURgSD+Lu9kMZoXLhwN9O+tukAlrNpJg1SzDH4QW/URgNYgZTkjA4UkwJUgGXng+6DX1zLfmoymdXo17xh5zmRJ6Q42BWCfc2oJfdAr+Yv+AP9Cb7OJ3H/2JG1HNGz/84klThPVCc=);labelBackgroundColor=none;rounded=0;html=1;whiteSpace=wrap;fontStyle=2;fontFamily=Arial;align=left;fontSize=16;spacingLeft=2;" parent="rFzxfalwFgXO4eg9ru58-133" vertex="1">
          <mxGeometry x="236.75675675675674" y="342.54355400696863" width="374.86486486486484" height="31.49825783972125" as="geometry" />
        </mxCell>
        <mxCell id="54" style="vsdxID=82;fillColor=none;gradientColor=none;shape=stencil(nZBLDoAgDERP0z3SIyjew0SURgSD+Lu9kMZoXLhwN9O+tukAlrNpJg1SzDH4QW/URgNYgZTkjA4UkwJUgGXng+6DX1zLfmoymdXo17xh5zmRJ6Q42BWCfc2oJfdAr+Yv+AP9Cb7OJ3H/2JG1HNGz/84klThPVCc=);labelBackgroundColor=none;rounded=0;html=1;whiteSpace=wrap;fontStyle=2;fontFamily=Arial;align=center;fontSize=16;" parent="rFzxfalwFgXO4eg9ru58-133" vertex="1">
          <mxGeometry x="611.6216216216216" y="342.54355400696863" width="118.37837837837837" height="31.49825783972125" as="geometry" />
        </mxCell>
        <mxCell id="55" value="" style="verticalAlign=middle;align=left;vsdxID=83;fillColor=none;gradientColor=none;shape=stencil(nZBLDoAgDERP0z3SIyjew0SURgSD+Lu9kMZoXLhwN9O+tukAlrNpJg1SzDH4QW/URgNYgZTkjA4UkwJUgGXng+6DX1zLfmoymdXo17xh5zmRJ6Q42BWCfc2oJfdAr+Yv+AP9Cb7OJ3H/2JG1HNGz/84klThPVCc=);labelBackgroundColor=none;rounded=0;html=1;whiteSpace=wrap;fontStyle=2;fontFamily=Arial;fontSize=16;spacingLeft=2;" parent="rFzxfalwFgXO4eg9ru58-133" vertex="1">
          <mxGeometry y="374.0418118466898" width="236.75675675675674" height="31.49825783972125" as="geometry" />
        </mxCell>
        <mxCell id="56" value="" style="verticalAlign=middle;align=left;vsdxID=84;fillColor=none;gradientColor=none;shape=stencil(nZBLDoAgDERP0z3SIyjew0SURgSD+Lu9kMZoXLhwN9O+tukAlrNpJg1SzDH4QW/URgNYgZTkjA4UkwJUgGXng+6DX1zLfmoymdXo17xh5zmRJ6Q42BWCfc2oJfdAr+Yv+AP9Cb7OJ3H/2JG1HNGz/84klThPVCc=);labelBackgroundColor=none;rounded=0;html=1;whiteSpace=wrap;fontStyle=2;fontFamily=Arial;fontSize=16;spacingLeft=2;" parent="rFzxfalwFgXO4eg9ru58-133" vertex="1">
          <mxGeometry x="236.75675675675674" y="374.0418118466898" width="374.86486486486484" height="31.49825783972125" as="geometry" />
        </mxCell>
        <mxCell id="57" value="" style="verticalAlign=middle;align=center;vsdxID=85;fillColor=none;gradientColor=none;shape=stencil(nZBLDoAgDERP0z3SIyjew0SURgSD+Lu9kMZoXLhwN9O+tukAlrNpJg1SzDH4QW/URgNYgZTkjA4UkwJUgGXng+6DX1zLfmoymdXo17xh5zmRJ6Q42BWCfc2oJfdAr+Yv+AP9Cb7OJ3H/2JG1HNGz/84klThPVCc=);labelBackgroundColor=none;rounded=0;html=1;whiteSpace=wrap;fontStyle=2;fontFamily=Arial;fontSize=16;" parent="rFzxfalwFgXO4eg9ru58-133" vertex="1">
          <mxGeometry x="611.6216216216216" y="374.0418118466898" width="118.37837837837837" height="31.49825783972125" as="geometry" />
        </mxCell>
        <mxCell id="58" value="" style="vsdxID=86;fillColor=none;gradientColor=none;shape=stencil(nZBLDoAgDERP0z3SIyjew0SURgSD+Lu9kMZoXLhwN9O+tukAlrNpJg1SzDH4QW/URgNYgZTkjA4UkwJUgGXng+6DX1zLfmoymdXo17xh5zmRJ6Q42BWCfc2oJfdAr+Yv+AP9Cb7OJ3H/2JG1HNGz/84klThPVCc=);labelBackgroundColor=none;rounded=0;html=1;whiteSpace=wrap;fontStyle=2;fontFamily=Arial;align=left;fontSize=16;spacingLeft=2;" parent="rFzxfalwFgXO4eg9ru58-133" vertex="1">
          <mxGeometry y="405.54006968641113" width="236.75675675675674" height="31.49825783972125" as="geometry" />
        </mxCell>
        <mxCell id="59" value="&lt;u style=&quot;font-size: 19px;&quot;&gt;Текстовые документы&lt;/u&gt;" style="vsdxID=87;fillColor=none;gradientColor=none;shape=stencil(nZBLDoAgDERP0z3SIyjew0SURgSD+Lu9kMZoXLhwN9O+tukAlrNpJg1SzDH4QW/URgNYgZTkjA4UkwJUgGXng+6DX1zLfmoymdXo17xh5zmRJ6Q42BWCfc2oJfdAr+Yv+AP9Cb7OJ3H/2JG1HNGz/84klThPVCc=);labelBackgroundColor=none;rounded=0;html=1;whiteSpace=wrap;align=left;spacingLeft=2;fontStyle=2;fontFamily=Arial;fontSize=16;" parent="rFzxfalwFgXO4eg9ru58-133" vertex="1">
          <mxGeometry x="236.75675675675674" y="405.54006968641113" width="374.86486486486484" height="31.49825783972125" as="geometry" />
        </mxCell>
        <mxCell id="60" value="" style="vsdxID=88;fillColor=none;gradientColor=none;shape=stencil(nZBLDoAgDERP0z3SIyjew0SURgSD+Lu9kMZoXLhwN9O+tukAlrNpJg1SzDH4QW/URgNYgZTkjA4UkwJUgGXng+6DX1zLfmoymdXo17xh5zmRJ6Q42BWCfc2oJfdAr+Yv+AP9Cb7OJ3H/2JG1HNGz/84klThPVCc=);labelBackgroundColor=none;rounded=0;html=1;whiteSpace=wrap;fontStyle=2;fontFamily=Arial;align=center;fontSize=16;" parent="rFzxfalwFgXO4eg9ru58-133" vertex="1">
          <mxGeometry x="611.6216216216216" y="405.54006968641113" width="118.37837837837837" height="31.49825783972125" as="geometry" />
        </mxCell>
        <mxCell id="61" value="БГУИР КП 1-400201.080 ПЗ" style="vsdxID=89;fillColor=none;gradientColor=none;shape=stencil(nZBLDoAgDERP0z3SIyjew0SURgSD+Lu9kMZoXLhwN9O+tukAlrNpJg1SzDH4QW/URgNYgZTkjA4UkwJUgGXng+6DX1zLfmoymdXo17xh5zmRJ6Q42BWCfc2oJfdAr+Yv+AP9Cb7OJ3H/2JG1HNGz/84klThPVCc=);labelBackgroundColor=none;rounded=0;html=1;whiteSpace=wrap;align=left;spacingLeft=2;fontStyle=2;fontFamily=Arial;fontSize=16;" parent="rFzxfalwFgXO4eg9ru58-133" vertex="1">
          <mxGeometry y="437.0383275261324" width="236.75675675675674" height="31.49825783972125" as="geometry" />
        </mxCell>
        <mxCell id="62" style="vsdxID=90;fillColor=none;gradientColor=none;shape=stencil(nZBLDoAgDERP0z3SIyjew0SURgSD+Lu9kMZoXLhwN9O+tukAlrNpJg1SzDH4QW/URgNYgZTkjA4UkwJUgGXng+6DX1zLfmoymdXo17xh5zmRJ6Q42BWCfc2oJfdAr+Yv+AP9Cb7OJ3H/2JG1HNGz/84klThPVCc=);labelBackgroundColor=none;rounded=0;html=1;whiteSpace=wrap;fontStyle=2;fontFamily=Arial;align=left;fontSize=16;spacingLeft=2;" parent="rFzxfalwFgXO4eg9ru58-133" vertex="1">
          <mxGeometry x="236.75675675675674" y="437.0383275261324" width="374.86486486486484" height="31.49825783972125" as="geometry" />
        </mxCell>
        <mxCell id="63" style="vsdxID=91;fillColor=none;gradientColor=none;shape=stencil(nZBLDoAgDERP0z3SIyjew0SURgSD+Lu9kMZoXLhwN9O+tukAlrNpJg1SzDH4QW/URgNYgZTkjA4UkwJUgGXng+6DX1zLfmoymdXo17xh5zmRJ6Q42BWCfc2oJfdAr+Yv+AP9Cb7OJ3H/2JG1HNGz/84klThPVCc=);labelBackgroundColor=none;rounded=0;html=1;whiteSpace=wrap;fontStyle=2;fontFamily=Arial;align=center;fontSize=16;" parent="rFzxfalwFgXO4eg9ru58-133" vertex="1">
          <mxGeometry x="611.6216216216216" y="437.0383275261324" width="118.37837837837837" height="31.49825783972125" as="geometry" />
        </mxCell>
        <mxCell id="64" style="vsdxID=92;fillColor=none;gradientColor=none;shape=stencil(nZBLDoAgDERP0z3SIyjew0SURgSD+Lu9kMZoXLhwN9O+tukAlrNpJg1SzDH4QW/URgNYgZTkjA4UkwJUgGXng+6DX1zLfmoymdXo17xh5zmRJ6Q42BWCfc2oJfdAr+Yv+AP9Cb7OJ3H/2JG1HNGz/84klThPVCc=);labelBackgroundColor=none;rounded=0;html=1;whiteSpace=wrap;fontStyle=2;fontFamily=Arial;align=left;fontSize=16;spacingLeft=2;" parent="rFzxfalwFgXO4eg9ru58-133" vertex="1">
          <mxGeometry y="468.53658536585357" width="236.75675675675674" height="31.49825783972125" as="geometry" />
        </mxCell>
        <mxCell id="65" value="План этажа. Схема монтажная" style="vsdxID=93;fillColor=none;gradientColor=none;shape=stencil(nZBLDoAgDERP0z3SIyjew0SURgSD+Lu9kMZoXLhwN9O+tukAlrNpJg1SzDH4QW/URgNYgZTkjA4UkwJUgGXng+6DX1zLfmoymdXo17xh5zmRJ6Q42BWCfc2oJfdAr+Yv+AP9Cb7OJ3H/2JG1HNGz/84klThPVCc=);labelBackgroundColor=none;rounded=0;html=1;whiteSpace=wrap;align=left;spacingLeft=2;fontStyle=2;fontFamily=Arial;fontSize=16;" parent="rFzxfalwFgXO4eg9ru58-133" vertex="1">
          <mxGeometry x="236.75675675675674" y="342.54355400696863" width="374.86486486486484" height="31.49825783972125" as="geometry" />
        </mxCell>
        <mxCell id="66" value="" style="vsdxID=94;fillColor=none;gradientColor=none;shape=stencil(nZBLDoAgDERP0z3SIyjew0SURgSD+Lu9kMZoXLhwN9O+tukAlrNpJg1SzDH4QW/URgNYgZTkjA4UkwJUgGXng+6DX1zLfmoymdXo17xh5zmRJ6Q42BWCfc2oJfdAr+Yv+AP9Cb7OJ3H/2JG1HNGz/84klThPVCc=);labelBackgroundColor=none;rounded=0;html=1;whiteSpace=wrap;fontStyle=2;fontFamily=Arial;align=center;fontSize=16;" parent="rFzxfalwFgXO4eg9ru58-133" vertex="1">
          <mxGeometry x="611.6216216216216" y="500.0348432055749" width="118.37837837837837" height="31.49825783972125" as="geometry" />
        </mxCell>
        <mxCell id="67" value="" style="vsdxID=95;fillColor=none;gradientColor=none;shape=stencil(nZBLDoAgDERP0z3SIyjew0SURgSD+Lu9kMZoXLhwN9O+tukAlrNpJg1SzDH4QW/URgNYgZTkjA4UkwJUgGXng+6DX1zLfmoymdXo17xh5zmRJ6Q42BWCfc2oJfdAr+Yv+AP9Cb7OJ3H/2JG1HNGz/84klThPVCc=);labelBackgroundColor=none;rounded=0;html=1;whiteSpace=wrap;fontStyle=2;fontFamily=Arial;align=left;fontSize=16;spacingLeft=2;" parent="rFzxfalwFgXO4eg9ru58-133" vertex="1">
          <mxGeometry y="374.0418118466898" width="236.75675675675674" height="31.49825783972125" as="geometry" />
        </mxCell>
        <mxCell id="69" value="" style="vsdxID=97;fillColor=none;gradientColor=none;shape=stencil(nZBLDoAgDERP0z3SIyjew0SURgSD+Lu9kMZoXLhwN9O+tukAlrNpJg1SzDH4QW/URgNYgZTkjA4UkwJUgGXng+6DX1zLfmoymdXo17xh5zmRJ6Q42BWCfc2oJfdAr+Yv+AP9Cb7OJ3H/2JG1HNGz/84klThPVCc=);labelBackgroundColor=none;rounded=0;html=1;whiteSpace=wrap;fontStyle=2;fontFamily=Arial;align=center;fontSize=16;" parent="rFzxfalwFgXO4eg9ru58-133" vertex="1">
          <mxGeometry x="611.6216216216216" y="374.0418118466898" width="118.37837837837837" height="31.49825783972125" as="geometry" />
        </mxCell>
        <mxCell id="73" style="vsdxID=101;fillColor=none;gradientColor=none;shape=stencil(nZBLDoAgDERP0z3SIyjew0SURgSD+Lu9kMZoXLhwN9O+tukAlrNpJg1SzDH4QW/URgNYgZTkjA4UkwJUgGXng+6DX1zLfmoymdXo17xh5zmRJ6Q42BWCfc2oJfdAr+Yv+AP9Cb7OJ3H/2JG1HNGz/84klThPVCc=);labelBackgroundColor=none;rounded=0;html=1;whiteSpace=wrap;fontStyle=2;fontFamily=Arial;align=left;fontSize=16;spacingLeft=2;" parent="rFzxfalwFgXO4eg9ru58-133" vertex="1">
          <mxGeometry y="563.0313588850173" width="236.75675675675674" height="31.49825783972125" as="geometry" />
        </mxCell>
        <mxCell id="74" value="Локальная компьютерная сеть.&amp;nbsp;&amp;nbsp;" style="vsdxID=102;fillColor=none;gradientColor=none;shape=stencil(nZBLDoAgDERP0z3SIyjew0SURgSD+Lu9kMZoXLhwN9O+tukAlrNpJg1SzDH4QW/URgNYgZTkjA4UkwJUgGXng+6DX1zLfmoymdXo17xh5zmRJ6Q42BWCfc2oJfdAr+Yv+AP9Cb7OJ3H/2JG1HNGz/84klThPVCc=);labelBackgroundColor=none;rounded=0;html=1;whiteSpace=wrap;align=left;spacingLeft=2;fontStyle=2;fontFamily=Arial;fontSize=16;" parent="rFzxfalwFgXO4eg9ru58-133" vertex="1">
          <mxGeometry x="236.75675675675674" y="437.0383275261324" width="374.86486486486484" height="31.49825783972125" as="geometry" />
        </mxCell>
        <mxCell id="75" value="44 с." style="vsdxID=103;fillColor=none;gradientColor=none;shape=stencil(nZBLDoAgDERP0z3SIyjew0SURgSD+Lu9kMZoXLhwN9O+tukAlrNpJg1SzDH4QW/URgNYgZTkjA4UkwJUgGXng+6DX1zLfmoymdXo17xh5zmRJ6Q42BWCfc2oJfdAr+Yv+AP9Cb7OJ3H/2JG1HNGz/84klThPVCc=);labelBackgroundColor=none;rounded=0;html=1;whiteSpace=wrap;align=center;fontStyle=2;fontFamily=Arial;fontSize=16;" parent="rFzxfalwFgXO4eg9ru58-133" vertex="1">
          <mxGeometry x="611.6216216216216" y="437.0383275261324" width="118.37837837837837" height="31.49825783972125" as="geometry" />
        </mxCell>
        <mxCell id="76" value="" style="vsdxID=104;fillColor=none;gradientColor=none;shape=stencil(nZBLDoAgDERP0z3SIyjew0SURgSD+Lu9kMZoXLhwN9O+tukAlrNpJg1SzDH4QW/URgNYgZTkjA4UkwJUgGXng+6DX1zLfmoymdXo17xh5zmRJ6Q42BWCfc2oJfdAr+Yv+AP9Cb7OJ3H/2JG1HNGz/84klThPVCc=);labelBackgroundColor=none;rounded=0;html=1;whiteSpace=wrap;fontStyle=2;fontFamily=Arial;align=left;fontSize=16;spacingLeft=2;" parent="rFzxfalwFgXO4eg9ru58-133" vertex="1">
          <mxGeometry y="594.5296167247386" width="236.75675675675674" height="31.49825783972125" as="geometry" />
        </mxCell>
        <mxCell id="77" value="" style="vsdxID=105;fillColor=none;gradientColor=none;shape=stencil(nZBLDoAgDERP0z3SIyjew0SURgSD+Lu9kMZoXLhwN9O+tukAlrNpJg1SzDH4QW/URgNYgZTkjA4UkwJUgGXng+6DX1zLfmoymdXo17xh5zmRJ6Q42BWCfc2oJfdAr+Yv+AP9Cb7OJ3H/2JG1HNGz/84klThPVCc=);labelBackgroundColor=none;rounded=0;html=1;whiteSpace=wrap;fontStyle=2;fontFamily=Arial;align=left;fontSize=16;spacingLeft=2;" parent="rFzxfalwFgXO4eg9ru58-133" vertex="1">
          <mxGeometry x="236.75675675675674" y="594.5296167247386" width="374.86486486486484" height="31.49825783972125" as="geometry" />
        </mxCell>
        <mxCell id="133" style="vsdxID=132;edgeStyle=none;startArrow=none;endArrow=none;startSize=5;endSize=5;strokeWidth=2;spacingTop=0;spacingBottom=0;spacingLeft=2;spacingRight=0;verticalAlign=middle;html=1;labelBackgroundColor=#ffffff;rounded=0;align=center;fontFamily=Arial;fontStyle=2" parent="rFzxfalwFgXO4eg9ru58-133" edge="1">
          <mxGeometry as="geometry">
            <Array as="points" />
            <mxPoint x="611.6216216216216" as="sourcePoint" />
            <mxPoint x="611.6216216216216" y="913.4494773519164" as="targetPoint" />
          </mxGeometry>
        </mxCell>
        <mxCell id="132" style="vsdxID=131;edgeStyle=none;startArrow=none;endArrow=none;startSize=5;endSize=5;strokeWidth=2;spacingTop=0;spacingBottom=0;spacingLeft=2;spacingRight=0;verticalAlign=middle;html=1;labelBackgroundColor=#ffffff;rounded=0;fontFamily=Arial;fontStyle=2" parent="rFzxfalwFgXO4eg9ru58-133" edge="1">
          <mxGeometry as="geometry">
            <Array as="points" />
            <mxPoint x="236.75675675675674" as="sourcePoint" />
            <mxPoint x="236.75675675675674" y="913.4494773519164" as="targetPoint" />
          </mxGeometry>
        </mxCell>
        <mxCell id="78" value="" style="vsdxID=106;fillColor=none;gradientColor=none;shape=stencil(nZBLDoAgDERP0z3SIyjew0SURgSD+Lu9kMZoXLhwN9O+tukAlrNpJg1SzDH4QW/URgNYgZTkjA4UkwJUgGXng+6DX1zLfmoymdXo17xh5zmRJ6Q42BWCfc2oJfdAr+Yv+AP9Cb7OJ3H/2JG1HNGz/84klThPVCc=);labelBackgroundColor=none;rounded=0;html=1;whiteSpace=wrap;fontStyle=2;fontFamily=Arial;align=center;fontSize=16;" parent="rFzxfalwFgXO4eg9ru58-133" vertex="1">
          <mxGeometry x="611.6216216216216" y="594.5296167247386" width="118.37837837837837" height="31.49825783972125" as="geometry" />
        </mxCell>
        <mxCell id="79" value="" style="vsdxID=107;fillColor=none;gradientColor=none;shape=stencil(nZBLDoAgDERP0z3SIyjew0SURgSD+Lu9kMZoXLhwN9O+tukAlrNpJg1SzDH4QW/URgNYgZTkjA4UkwJUgGXng+6DX1zLfmoymdXo17xh5zmRJ6Q42BWCfc2oJfdAr+Yv+AP9Cb7OJ3H/2JG1HNGz/84klThPVCc=);labelBackgroundColor=none;rounded=0;html=1;whiteSpace=wrap;fontStyle=2;fontFamily=Arial;align=left;fontSize=16;spacingLeft=2;" parent="rFzxfalwFgXO4eg9ru58-133" vertex="1">
          <mxGeometry y="626.0278745644599" width="236.75675675675674" height="31.49825783972125" as="geometry" />
        </mxCell>
        <mxCell id="80" value="" style="vsdxID=108;fillColor=none;gradientColor=none;shape=stencil(nZBLDoAgDERP0z3SIyjew0SURgSD+Lu9kMZoXLhwN9O+tukAlrNpJg1SzDH4QW/URgNYgZTkjA4UkwJUgGXng+6DX1zLfmoymdXo17xh5zmRJ6Q42BWCfc2oJfdAr+Yv+AP9Cb7OJ3H/2JG1HNGz/84klThPVCc=);labelBackgroundColor=none;rounded=0;html=1;whiteSpace=wrap;fontStyle=2;fontFamily=Arial;align=left;fontSize=16;spacingLeft=2;" parent="rFzxfalwFgXO4eg9ru58-133" vertex="1">
          <mxGeometry x="236.75675675675674" y="626.0278745644599" width="374.86486486486484" height="31.49825783972125" as="geometry" />
        </mxCell>
        <mxCell id="81" style="vsdxID=109;fillColor=none;gradientColor=none;shape=stencil(nZBLDoAgDERP0z3SIyjew0SURgSD+Lu9kMZoXLhwN9O+tukAlrNpJg1SzDH4QW/URgNYgZTkjA4UkwJUgGXng+6DX1zLfmoymdXo17xh5zmRJ6Q42BWCfc2oJfdAr+Yv+AP9Cb7OJ3H/2JG1HNGz/84klThPVCc=);labelBackgroundColor=none;rounded=0;html=1;whiteSpace=wrap;fontStyle=2;fontFamily=Arial;align=center;fontSize=16;" parent="rFzxfalwFgXO4eg9ru58-133" vertex="1">
          <mxGeometry x="611.6216216216216" y="626.0278745644599" width="118.37837837837837" height="31.49825783972125" as="geometry" />
        </mxCell>
        <mxCell id="82" value="" style="vsdxID=110;fillColor=none;gradientColor=none;shape=stencil(nZBLDoAgDERP0z3SIyjew0SURgSD+Lu9kMZoXLhwN9O+tukAlrNpJg1SzDH4QW/URgNYgZTkjA4UkwJUgGXng+6DX1zLfmoymdXo17xh5zmRJ6Q42BWCfc2oJfdAr+Yv+AP9Cb7OJ3H/2JG1HNGz/84klThPVCc=);labelBackgroundColor=none;rounded=0;html=1;whiteSpace=wrap;fontStyle=2;fontFamily=Arial;align=left;fontSize=16;spacingLeft=2;" parent="rFzxfalwFgXO4eg9ru58-133" vertex="1">
          <mxGeometry y="657.5261324041811" width="236.75675675675674" height="31.49825783972125" as="geometry" />
        </mxCell>
        <mxCell id="83" value="" style="vsdxID=111;fillColor=none;gradientColor=none;shape=stencil(nZBLDoAgDERP0z3SIyjew0SURgSD+Lu9kMZoXLhwN9O+tukAlrNpJg1SzDH4QW/URgNYgZTkjA4UkwJUgGXng+6DX1zLfmoymdXo17xh5zmRJ6Q42BWCfc2oJfdAr+Yv+AP9Cb7OJ3H/2JG1HNGz/84klThPVCc=);labelBackgroundColor=none;rounded=0;html=1;whiteSpace=wrap;fontStyle=2;fontFamily=Arial;align=left;fontSize=16;spacingLeft=2;" parent="rFzxfalwFgXO4eg9ru58-133" vertex="1">
          <mxGeometry x="236.75675675675674" y="657.5261324041811" width="374.86486486486484" height="31.49825783972125" as="geometry" />
        </mxCell>
        <mxCell id="84" value="" style="vsdxID=112;fillColor=none;gradientColor=none;shape=stencil(nZBLDoAgDERP0z3SIyjew0SURgSD+Lu9kMZoXLhwN9O+tukAlrNpJg1SzDH4QW/URgNYgZTkjA4UkwJUgGXng+6DX1zLfmoymdXo17xh5zmRJ6Q42BWCfc2oJfdAr+Yv+AP9Cb7OJ3H/2JG1HNGz/84klThPVCc=);labelBackgroundColor=none;rounded=0;html=1;whiteSpace=wrap;fontStyle=2;fontFamily=Arial;align=center;fontSize=16;" parent="rFzxfalwFgXO4eg9ru58-133" vertex="1">
          <mxGeometry x="611.6216216216216" y="657.5261324041811" width="118.37837837837837" height="31.49825783972125" as="geometry" />
        </mxCell>
        <mxCell id="85" style="vsdxID=113;fillColor=none;gradientColor=none;shape=stencil(nZBLDoAgDERP0z3SIyjew0SURgSD+Lu9kMZoXLhwN9O+tukAlrNpJg1SzDH4QW/URgNYgZTkjA4UkwJUgGXng+6DX1zLfmoymdXo17xh5zmRJ6Q42BWCfc2oJfdAr+Yv+AP9Cb7OJ3H/2JG1HNGz/84klThPVCc=);labelBackgroundColor=none;rounded=0;html=1;whiteSpace=wrap;fontStyle=2;fontFamily=Arial;align=left;fontSize=16;spacingLeft=2;" parent="rFzxfalwFgXO4eg9ru58-133" vertex="1">
          <mxGeometry y="689.0243902439024" width="236.75675675675674" height="31.49825783972125" as="geometry" />
        </mxCell>
        <mxCell id="86" value="" style="vsdxID=114;fillColor=none;gradientColor=none;shape=stencil(nZBLDoAgDERP0z3SIyjew0SURgSD+Lu9kMZoXLhwN9O+tukAlrNpJg1SzDH4QW/URgNYgZTkjA4UkwJUgGXng+6DX1zLfmoymdXo17xh5zmRJ6Q42BWCfc2oJfdAr+Yv+AP9Cb7OJ3H/2JG1HNGz/84klThPVCc=);labelBackgroundColor=none;rounded=0;html=1;whiteSpace=wrap;fontStyle=2;fontFamily=Arial;align=left;fontSize=16;spacingLeft=2;" parent="rFzxfalwFgXO4eg9ru58-133" vertex="1">
          <mxGeometry x="236.75675675675674" y="689.0243902439024" width="374.86486486486484" height="31.49825783972125" as="geometry" />
        </mxCell>
        <mxCell id="87" style="vsdxID=115;fillColor=none;gradientColor=none;shape=stencil(nZBLDoAgDERP0z3SIyjew0SURgSD+Lu9kMZoXLhwN9O+tukAlrNpJg1SzDH4QW/URgNYgZTkjA4UkwJUgGXng+6DX1zLfmoymdXo17xh5zmRJ6Q42BWCfc2oJfdAr+Yv+AP9Cb7OJ3H/2JG1HNGz/84klThPVCc=);labelBackgroundColor=none;rounded=0;html=1;whiteSpace=wrap;fontStyle=2;fontFamily=Arial;align=center;fontSize=16;" parent="rFzxfalwFgXO4eg9ru58-133" vertex="1">
          <mxGeometry x="611.6216216216216" y="689.0243902439024" width="118.37837837837837" height="31.49825783972125" as="geometry" />
        </mxCell>
        <mxCell id="88" style="vsdxID=116;fillColor=none;gradientColor=none;shape=stencil(nZBLDoAgDERP0z3SIyjew0SURgSD+Lu9kMZoXLhwN9O+tukAlrNpJg1SzDH4QW/URgNYgZTkjA4UkwJUgGXng+6DX1zLfmoymdXo17xh5zmRJ6Q42BWCfc2oJfdAr+Yv+AP9Cb7OJ3H/2JG1HNGz/84klThPVCc=);labelBackgroundColor=none;rounded=0;html=1;whiteSpace=wrap;fontStyle=2;fontFamily=Arial;align=left;fontSize=16;spacingLeft=2;" parent="rFzxfalwFgXO4eg9ru58-133" vertex="1">
          <mxGeometry y="720.5226480836236" width="236.75675675675674" height="31.49825783972125" as="geometry" />
        </mxCell>
        <mxCell id="89" value="" style="vsdxID=117;fillColor=none;gradientColor=none;shape=stencil(nZBLDoAgDERP0z3SIyjew0SURgSD+Lu9kMZoXLhwN9O+tukAlrNpJg1SzDH4QW/URgNYgZTkjA4UkwJUgGXng+6DX1zLfmoymdXo17xh5zmRJ6Q42BWCfc2oJfdAr+Yv+AP9Cb7OJ3H/2JG1HNGz/84klThPVCc=);labelBackgroundColor=none;rounded=0;html=1;whiteSpace=wrap;fontStyle=2;fontFamily=Arial;align=left;fontSize=16;spacingLeft=2;" parent="rFzxfalwFgXO4eg9ru58-133" vertex="1">
          <mxGeometry x="236.75675675675674" y="720.5226480836236" width="374.86486486486484" height="31.49825783972125" as="geometry" />
        </mxCell>
        <mxCell id="90" style="vsdxID=118;fillColor=none;gradientColor=none;shape=stencil(nZBLDoAgDERP0z3SIyjew0SURgSD+Lu9kMZoXLhwN9O+tukAlrNpJg1SzDH4QW/URgNYgZTkjA4UkwJUgGXng+6DX1zLfmoymdXo17xh5zmRJ6Q42BWCfc2oJfdAr+Yv+AP9Cb7OJ3H/2JG1HNGz/84klThPVCc=);labelBackgroundColor=none;rounded=0;html=1;whiteSpace=wrap;fontStyle=2;fontFamily=Arial;align=center;fontSize=16;" parent="rFzxfalwFgXO4eg9ru58-133" vertex="1">
          <mxGeometry x="611.6216216216216" y="720.5226480836236" width="118.37837837837837" height="31.49825783972125" as="geometry" />
        </mxCell>
        <mxCell id="91" value="" style="vsdxID=119;fillColor=none;gradientColor=none;shape=stencil(nZBLDoAgDERP0z3SIyjew0SURgSD+Lu9kMZoXLhwN9O+tukAlrNpJg1SzDH4QW/URgNYgZTkjA4UkwJUgGXng+6DX1zLfmoymdXo17xh5zmRJ6Q42BWCfc2oJfdAr+Yv+AP9Cb7OJ3H/2JG1HNGz/84klThPVCc=);labelBackgroundColor=none;rounded=0;html=1;whiteSpace=wrap;fontStyle=2;fontFamily=Arial;align=left;fontSize=16;spacingLeft=2;" parent="rFzxfalwFgXO4eg9ru58-133" vertex="1">
          <mxGeometry y="752.0209059233448" width="236.75675675675674" height="31.49825783972125" as="geometry" />
        </mxCell>
        <mxCell id="92" value="" style="vsdxID=120;fillColor=none;gradientColor=none;shape=stencil(nZBLDoAgDERP0z3SIyjew0SURgSD+Lu9kMZoXLhwN9O+tukAlrNpJg1SzDH4QW/URgNYgZTkjA4UkwJUgGXng+6DX1zLfmoymdXo17xh5zmRJ6Q42BWCfc2oJfdAr+Yv+AP9Cb7OJ3H/2JG1HNGz/84klThPVCc=);labelBackgroundColor=none;rounded=0;html=1;whiteSpace=wrap;fontStyle=2;fontFamily=Arial;align=left;fontSize=16;spacingLeft=2;" parent="rFzxfalwFgXO4eg9ru58-133" vertex="1">
          <mxGeometry x="236.75675675675674" y="752.0209059233448" width="374.86486486486484" height="31.49825783972125" as="geometry" />
        </mxCell>
        <mxCell id="93" value="" style="vsdxID=121;fillColor=none;gradientColor=none;shape=stencil(nZBLDoAgDERP0z3SIyjew0SURgSD+Lu9kMZoXLhwN9O+tukAlrNpJg1SzDH4QW/URgNYgZTkjA4UkwJUgGXng+6DX1zLfmoymdXo17xh5zmRJ6Q42BWCfc2oJfdAr+Yv+AP9Cb7OJ3H/2JG1HNGz/84klThPVCc=);labelBackgroundColor=none;rounded=0;html=1;whiteSpace=wrap;fontStyle=2;fontFamily=Arial;align=center;fontSize=16;" parent="rFzxfalwFgXO4eg9ru58-133" vertex="1">
          <mxGeometry x="611.6216216216216" y="752.0209059233448" width="118.37837837837837" height="31.49825783972125" as="geometry" />
        </mxCell>
        <mxCell id="94" style="vsdxID=122;fillColor=none;gradientColor=none;shape=stencil(nZBLDoAgDERP0z3SIyjew0SURgSD+Lu9kMZoXLhwN9O+tukAlrNpJg1SzDH4QW/URgNYgZTkjA4UkwJUgGXng+6DX1zLfmoymdXo17xh5zmRJ6Q42BWCfc2oJfdAr+Yv+AP9Cb7OJ3H/2JG1HNGz/84klThPVCc=);labelBackgroundColor=none;rounded=0;html=1;whiteSpace=wrap;fontStyle=2;fontFamily=Arial;align=left;fontSize=16;spacingLeft=2;" parent="rFzxfalwFgXO4eg9ru58-133" vertex="1">
          <mxGeometry y="783.5191637630662" width="236.75675675675674" height="31.49825783972125" as="geometry" />
        </mxCell>
        <mxCell id="95" value="" style="vsdxID=123;fillColor=none;gradientColor=none;shape=stencil(nZBLDoAgDERP0z3SIyjew0SURgSD+Lu9kMZoXLhwN9O+tukAlrNpJg1SzDH4QW/URgNYgZTkjA4UkwJUgGXng+6DX1zLfmoymdXo17xh5zmRJ6Q42BWCfc2oJfdAr+Yv+AP9Cb7OJ3H/2JG1HNGz/84klThPVCc=);labelBackgroundColor=none;rounded=0;html=1;whiteSpace=wrap;fontStyle=2;fontFamily=Arial;align=left;fontSize=16;spacingLeft=2;" parent="rFzxfalwFgXO4eg9ru58-133" vertex="1">
          <mxGeometry x="236.75675675675674" y="783.5191637630662" width="374.86486486486484" height="31.49825783972125" as="geometry" />
        </mxCell>
        <mxCell id="96" style="vsdxID=124;fillColor=none;gradientColor=none;shape=stencil(nZBLDoAgDERP0z3SIyjew0SURgSD+Lu9kMZoXLhwN9O+tukAlrNpJg1SzDH4QW/URgNYgZTkjA4UkwJUgGXng+6DX1zLfmoymdXo17xh5zmRJ6Q42BWCfc2oJfdAr+Yv+AP9Cb7OJ3H/2JG1HNGz/84klThPVCc=);labelBackgroundColor=none;rounded=0;html=1;whiteSpace=wrap;fontStyle=2;fontFamily=Arial;align=center;fontSize=16;" parent="rFzxfalwFgXO4eg9ru58-133" vertex="1">
          <mxGeometry x="611.6216216216216" y="783.5191637630662" width="118.37837837837837" height="31.49825783972125" as="geometry" />
        </mxCell>
        <mxCell id="97" style="vsdxID=125;fillColor=none;gradientColor=none;shape=stencil(nZBLDoAgDERP0z3SIyjew0SURgSD+Lu9kMZoXLhwN9O+tukAlrNpJg1SzDH4QW/URgNYgZTkjA4UkwJUgGXng+6DX1zLfmoymdXo17xh5zmRJ6Q42BWCfc2oJfdAr+Yv+AP9Cb7OJ3H/2JG1HNGz/84klThPVCc=);labelBackgroundColor=none;rounded=0;html=1;whiteSpace=wrap;fontStyle=2;fontFamily=Arial;align=left;fontSize=16;spacingLeft=2;" parent="rFzxfalwFgXO4eg9ru58-133" vertex="1">
          <mxGeometry y="815.0174216027874" width="236.75675675675674" height="31.49825783972125" as="geometry" />
        </mxCell>
        <mxCell id="98" style="vsdxID=126;fillColor=none;gradientColor=none;shape=stencil(nZBLDoAgDERP0z3SIyjew0SURgSD+Lu9kMZoXLhwN9O+tukAlrNpJg1SzDH4QW/URgNYgZTkjA4UkwJUgGXng+6DX1zLfmoymdXo17xh5zmRJ6Q42BWCfc2oJfdAr+Yv+AP9Cb7OJ3H/2JG1HNGz/84klThPVCc=);labelBackgroundColor=none;rounded=0;html=1;whiteSpace=wrap;fontStyle=2;fontFamily=Arial;align=left;fontSize=16;spacingLeft=2;" parent="rFzxfalwFgXO4eg9ru58-133" vertex="1">
          <mxGeometry x="236.75675675675674" y="815.0174216027874" width="374.86486486486484" height="31.49825783972125" as="geometry" />
        </mxCell>
        <mxCell id="99" style="vsdxID=127;fillColor=none;gradientColor=none;shape=stencil(nZBLDoAgDERP0z3SIyjew0SURgSD+Lu9kMZoXLhwN9O+tukAlrNpJg1SzDH4QW/URgNYgZTkjA4UkwJUgGXng+6DX1zLfmoymdXo17xh5zmRJ6Q42BWCfc2oJfdAr+Yv+AP9Cb7OJ3H/2JG1HNGz/84klThPVCc=);labelBackgroundColor=none;rounded=0;html=1;whiteSpace=wrap;fontStyle=2;fontFamily=Arial;align=center;fontSize=16;" parent="rFzxfalwFgXO4eg9ru58-133" vertex="1">
          <mxGeometry x="611.6216216216216" y="815.0174216027874" width="118.37837837837837" height="31.49825783972125" as="geometry" />
        </mxCell>
        <mxCell id="100" style="vsdxID=128;fillColor=none;gradientColor=none;shape=stencil(nZBLDoAgDERP0z3SIyjew0SURgSD+Lu9kMZoXLhwN9O+tukAlrNpJg1SzDH4QW/URgNYgZTkjA4UkwJUgGXng+6DX1zLfmoymdXo17xh5zmRJ6Q42BWCfc2oJfdAr+Yv+AP9Cb7OJ3H/2JG1HNGz/84klThPVCc=);labelBackgroundColor=none;rounded=0;html=1;whiteSpace=wrap;fontStyle=2;fontFamily=Arial;align=left;fontSize=16;spacingLeft=2;" parent="rFzxfalwFgXO4eg9ru58-133" vertex="1">
          <mxGeometry y="846.5156794425086" width="236.75675675675674" height="31.49825783972125" as="geometry" />
        </mxCell>
        <mxCell id="101" style="vsdxID=129;fillColor=none;gradientColor=none;shape=stencil(nZBLDoAgDERP0z3SIyjew0SURgSD+Lu9kMZoXLhwN9O+tukAlrNpJg1SzDH4QW/URgNYgZTkjA4UkwJUgGXng+6DX1zLfmoymdXo17xh5zmRJ6Q42BWCfc2oJfdAr+Yv+AP9Cb7OJ3H/2JG1HNGz/84klThPVCc=);labelBackgroundColor=none;rounded=0;html=1;whiteSpace=wrap;fontStyle=2;fontFamily=Arial;align=left;fontSize=16;spacingLeft=2;" parent="rFzxfalwFgXO4eg9ru58-133" vertex="1">
          <mxGeometry x="236.75675675675674" y="846.5156794425086" width="374.86486486486484" height="31.49825783972125" as="geometry" />
        </mxCell>
        <mxCell id="102" style="vsdxID=130;fillColor=none;gradientColor=none;shape=stencil(nZBLDoAgDERP0z3SIyjew0SURgSD+Lu9kMZoXLhwN9O+tukAlrNpJg1SzDH4QW/URgNYgZTkjA4UkwJUgGXng+6DX1zLfmoymdXo17xh5zmRJ6Q42BWCfc2oJfdAr+Yv+AP9Cb7OJ3H/2JG1HNGz/84klThPVCc=);labelBackgroundColor=none;rounded=0;html=1;whiteSpace=wrap;fontStyle=2;fontFamily=Arial;align=center;fontSize=16;" parent="rFzxfalwFgXO4eg9ru58-133" vertex="1">
          <mxGeometry x="611.6216216216216" y="846.5156794425086" width="118.37837837837837" height="31.49825783972125" as="geometry" />
        </mxCell>
        <mxCell id="103" style="vsdxID=1;edgeStyle=none;startArrow=none;endArrow=none;startSize=5;endSize=5;strokeWidth=4;spacingTop=0;spacingBottom=0;spacingLeft=0;spacingRight=0;verticalAlign=middle;html=1;labelBackgroundColor=#ffffff;rounded=0;fontFamily=Arial;fontStyle=2" parent="rFzxfalwFgXO4eg9ru58-133" edge="1">
          <mxGeometry as="geometry">
            <mxPoint as="offset" />
            <Array as="points" />
            <mxPoint y="1130" as="sourcePoint" />
            <mxPoint x="730" y="1130" as="targetPoint" />
          </mxGeometry>
        </mxCell>
        <mxCell id="104" style="vsdxID=2;edgeStyle=none;startArrow=none;endArrow=none;startSize=5;endSize=5;strokeWidth=4;spacingTop=0;spacingBottom=0;spacingLeft=0;spacingRight=0;verticalAlign=middle;html=1;labelBackgroundColor=#ffffff;rounded=0;fontFamily=Arial;fontStyle=2" parent="rFzxfalwFgXO4eg9ru58-133" edge="1">
          <mxGeometry as="geometry">
            <Array as="points" />
            <mxPoint x="730" y="1130" as="sourcePoint" />
            <mxPoint x="730" as="targetPoint" />
          </mxGeometry>
        </mxCell>
        <mxCell id="105" style="vsdxID=3;edgeStyle=none;startArrow=none;endArrow=none;startSize=5;endSize=5;strokeWidth=4;spacingTop=0;spacingBottom=0;spacingLeft=0;spacingRight=0;verticalAlign=middle;html=1;labelBackgroundColor=#ffffff;rounded=0;fontStyle=2;fontFamily=Arial;align=left;" parent="rFzxfalwFgXO4eg9ru58-133" edge="1">
          <mxGeometry as="geometry">
            <Array as="points" />
            <mxPoint x="730" as="sourcePoint" />
            <mxPoint as="targetPoint" />
          </mxGeometry>
        </mxCell>
        <mxCell id="106" style="vsdxID=4;edgeStyle=none;startArrow=none;endArrow=none;startSize=5;endSize=5;strokeWidth=4;spacingTop=0;spacingBottom=0;spacingLeft=0;spacingRight=0;verticalAlign=middle;html=1;labelBackgroundColor=#ffffff;rounded=0;fontFamily=Arial;fontStyle=2" parent="rFzxfalwFgXO4eg9ru58-133" edge="1">
          <mxGeometry as="geometry">
            <Array as="points" />
            <mxPoint as="sourcePoint" />
            <mxPoint y="1130" as="targetPoint" />
          </mxGeometry>
        </mxCell>
        <mxCell id="6LQt10_kdTzjlK993K9d-135" value="" style="vsdxID=102;fillColor=none;gradientColor=none;shape=stencil(nZBLDoAgDERP0z3SIyjew0SURgSD+Lu9kMZoXLhwN9O+tukAlrNpJg1SzDH4QW/URgNYgZTkjA4UkwJUgGXng+6DX1zLfmoymdXo17xh5zmRJ6Q42BWCfc2oJfdAr+Yv+AP9Cb7OJ3H/2JG1HNGz/84klThPVCc=);labelBackgroundColor=none;rounded=0;html=1;whiteSpace=wrap;fontStyle=2;fontFamily=Arial;align=left;fontSize=16;spacingLeft=2;" parent="rFzxfalwFgXO4eg9ru58-133" vertex="1">
          <mxGeometry x="236.75675675675674" y="374.0418118466898" width="374.86486486486484" height="31.49825783972125" as="geometry" />
        </mxCell>
        <mxCell id="1hy_tLkAstv8IwgJfpOn-223" value="&lt;font style=&quot;font-size: 16px; color: rgb(0, 0, 0); direction: ltr; letter-spacing: 0px; line-height: 120%; opacity: 1;&quot;&gt;А3&lt;span style=&quot;font-size: 16px;&quot;&gt;&lt;br style=&quot;font-size: 16px;&quot;&gt;&lt;/span&gt;&lt;/font&gt;" style="verticalAlign=middle;align=center;vsdxID=67;fillColor=none;gradientColor=none;shape=stencil(nZBLDoAgDERP0z3SIyjew0SURgSD+Lu9kMZoXLhwN9O+tukAlrNpJg1SzDH4QW/URgNYgZTkjA4UkwJUgGXng+6DX1zLfmoymdXo17xh5zmRJ6Q42BWCfc2oJfdAr+Yv+AP9Cb7OJ3H/2JG1HNGz/84klThPVCc=);labelBackgroundColor=none;rounded=0;html=1;whiteSpace=wrap;fontStyle=2;fontFamily=Arial;fontSize=16;" parent="rFzxfalwFgXO4eg9ru58-133" vertex="1">
          <mxGeometry x="611.6216216216216" y="216.55052264808361" width="118.37837837837837" height="31.49825783972125" as="geometry" />
        </mxCell>
        <mxCell id="QeMB5MlL0QBIPOY0YRtc-135" value="&lt;font style=&quot;font-size: 16px; color: rgb(0, 0, 0); direction: ltr; letter-spacing: 0px; line-height: 120%; opacity: 1;&quot;&gt;&lt;span style=&quot;font-size: 16px;&quot;&gt;&lt;br style=&quot;font-size: 16px;&quot;&gt;&lt;/span&gt;&lt;/font&gt;" style="verticalAlign=middle;align=center;vsdxID=67;fillColor=none;gradientColor=none;shape=stencil(nZBLDoAgDERP0z3SIyjew0SURgSD+Lu9kMZoXLhwN9O+tukAlrNpJg1SzDH4QW/URgNYgZTkjA4UkwJUgGXng+6DX1zLfmoymdXo17xh5zmRJ6Q42BWCfc2oJfdAr+Yv+AP9Cb7OJ3H/2JG1HNGz/84klThPVCc=);labelBackgroundColor=none;rounded=0;html=1;whiteSpace=wrap;fontStyle=2;fontFamily=Arial;fontSize=16;" parent="rFzxfalwFgXO4eg9ru58-133" vertex="1">
          <mxGeometry x="611.6216216216216" y="248.04878048780486" width="118.37837837837837" height="31.49825783972125" as="geometry" />
        </mxCell>
        <mxCell id="QeMB5MlL0QBIPOY0YRtc-139" value="ГУИР.400201.080 ПЭЭ" style="vsdxID=101;fillColor=none;gradientColor=none;shape=stencil(nZBLDoAgDERP0z3SIyjew0SURgSD+Lu9kMZoXLhwN9O+tukAlrNpJg1SzDH4QW/URgNYgZTkjA4UkwJUgGXng+6DX1zLfmoymdXo17xh5zmRJ6Q42BWCfc2oJfdAr+Yv+AP9Cb7OJ3H/2JG1HNGz/84klThPVCc=);labelBackgroundColor=none;rounded=0;html=1;whiteSpace=wrap;fontStyle=2;fontFamily=Arial;align=left;fontSize=16;spacingLeft=2;" parent="rFzxfalwFgXO4eg9ru58-133" vertex="1">
          <mxGeometry y="531.5331010452961" width="236.75675675675674" height="31.49825783972125" as="geometry" />
        </mxCell>
        <mxCell id="QeMB5MlL0QBIPOY0YRtc-140" value="Пояснительная записка" style="vsdxID=105;fillColor=none;gradientColor=none;shape=stencil(nZBLDoAgDERP0z3SIyjew0SURgSD+Lu9kMZoXLhwN9O+tukAlrNpJg1SzDH4QW/URgNYgZTkjA4UkwJUgGXng+6DX1zLfmoymdXo17xh5zmRJ6Q42BWCfc2oJfdAr+Yv+AP9Cb7OJ3H/2JG1HNGz/84klThPVCc=);labelBackgroundColor=none;rounded=0;html=1;whiteSpace=wrap;align=left;spacingLeft=2;fontStyle=2;fontFamily=Arial;fontSize=16;" parent="rFzxfalwFgXO4eg9ru58-133" vertex="1">
          <mxGeometry x="236.75675675675674" y="468.53658536585357" width="374.86486486486484" height="31.49825783972125" as="geometry" />
        </mxCell>
        <mxCell id="QeMB5MlL0QBIPOY0YRtc-141" value="" style="vsdxID=108;fillColor=none;gradientColor=none;shape=stencil(nZBLDoAgDERP0z3SIyjew0SURgSD+Lu9kMZoXLhwN9O+tukAlrNpJg1SzDH4QW/URgNYgZTkjA4UkwJUgGXng+6DX1zLfmoymdXo17xh5zmRJ6Q42BWCfc2oJfdAr+Yv+AP9Cb7OJ3H/2JG1HNGz/84klThPVCc=);labelBackgroundColor=none;rounded=0;html=1;whiteSpace=wrap;fontStyle=2;fontFamily=Arial;align=left;spacingLeft=2;" parent="rFzxfalwFgXO4eg9ru58-133" vertex="1">
          <mxGeometry x="236.75675675675674" y="500.0348432055749" width="374.86486486486484" height="31.49825783972125" as="geometry" />
        </mxCell>
        <mxCell id="QeMB5MlL0QBIPOY0YRtc-142" value="Локальная компьютерная сеть.&amp;nbsp;&amp;nbsp;" style="vsdxID=111;fillColor=none;gradientColor=none;shape=stencil(nZBLDoAgDERP0z3SIyjew0SURgSD+Lu9kMZoXLhwN9O+tukAlrNpJg1SzDH4QW/URgNYgZTkjA4UkwJUgGXng+6DX1zLfmoymdXo17xh5zmRJ6Q42BWCfc2oJfdAr+Yv+AP9Cb7OJ3H/2JG1HNGz/84klThPVCc=);labelBackgroundColor=none;rounded=0;html=1;whiteSpace=wrap;fontStyle=2;fontFamily=Arial;align=left;fontSize=16;spacingLeft=2;" parent="rFzxfalwFgXO4eg9ru58-133" vertex="1">
          <mxGeometry x="236.75675675675674" y="531.5331010452961" width="374.86486486486484" height="31.49825783972125" as="geometry" />
        </mxCell>
        <mxCell id="QeMB5MlL0QBIPOY0YRtc-143" value="Перечень оборудования, изделий и материалов" style="vsdxID=114;fillColor=none;gradientColor=none;shape=stencil(nZBLDoAgDERP0z3SIyjew0SURgSD+Lu9kMZoXLhwN9O+tukAlrNpJg1SzDH4QW/URgNYgZTkjA4UkwJUgGXng+6DX1zLfmoymdXo17xh5zmRJ6Q42BWCfc2oJfdAr+Yv+AP9Cb7OJ3H/2JG1HNGz/84klThPVCc=);labelBackgroundColor=none;rounded=0;html=1;whiteSpace=wrap;fontStyle=2;fontFamily=Arial;align=left;fontSize=16;spacingLeft=2;" parent="rFzxfalwFgXO4eg9ru58-133" vertex="1">
          <mxGeometry x="235.7702702702703" y="563.0313588850173" width="374.86486486486484" height="31.49825783972125" as="geometry" />
        </mxCell>
        <mxCell id="QeMB5MlL0QBIPOY0YRtc-144" value="1 с." style="vsdxID=106;fillColor=none;gradientColor=none;shape=stencil(nZBLDoAgDERP0z3SIyjew0SURgSD+Lu9kMZoXLhwN9O+tukAlrNpJg1SzDH4QW/URgNYgZTkjA4UkwJUgGXng+6DX1zLfmoymdXo17xh5zmRJ6Q42BWCfc2oJfdAr+Yv+AP9Cb7OJ3H/2JG1HNGz/84klThPVCc=);labelBackgroundColor=none;rounded=0;html=1;whiteSpace=wrap;fontStyle=2;fontFamily=Arial;align=center;fontSize=16;" parent="rFzxfalwFgXO4eg9ru58-133" vertex="1">
          <mxGeometry x="611.6216216216216" y="531.5331010452961" width="118.37837837837837" height="31.49825783972125" as="geometry" />
        </mxCell>
        <mxCell id="QeMB5MlL0QBIPOY0YRtc-145" value="" style="vsdxID=109;fillColor=none;gradientColor=none;shape=stencil(nZBLDoAgDERP0z3SIyjew0SURgSD+Lu9kMZoXLhwN9O+tukAlrNpJg1SzDH4QW/URgNYgZTkjA4UkwJUgGXng+6DX1zLfmoymdXo17xh5zmRJ6Q42BWCfc2oJfdAr+Yv+AP9Cb7OJ3H/2JG1HNGz/84klThPVCc=);labelBackgroundColor=none;rounded=0;html=1;whiteSpace=wrap;fontStyle=2;fontFamily=Arial;align=center;fontSize=16;" parent="rFzxfalwFgXO4eg9ru58-133" vertex="1">
          <mxGeometry x="611.6216216216216" y="563.0313588850173" width="118.37837837837837" height="31.49825783972125" as="geometry" />
        </mxCell>
      </root>
    </mxGraphModel>
  </diagram>
</mxfile>
